<?xml version="1.0" encoding="UTF-8" standalone="no"?>
<!-- Created with Inkscape (http://www.inkscape.org/) -->

<svg
   width="302.68338mm"
   height="150.28334mm"
   viewBox="0 0 302.68338 150.28334"
   version="1.1"
   id="svg16067"
   xml:space="preserve"
   xmlns="http://www.w3.org/2000/svg"
   xmlns:svg="http://www.w3.org/2000/svg"><defs
     id="defs16064"><clipPath
       clipPathUnits="userSpaceOnUse"
       id="clipPath16093"><path
         d="M 0,0 H 429 V 426 H 0 Z"
         id="path16091" /></clipPath><clipPath
       clipPathUnits="userSpaceOnUse"
       id="clipPath16161"><path
         d="M 48.24,66.24 H 380.76 V 366.96 H 48.24 Z"
         id="path16159" /></clipPath><clipPath
       clipPathUnits="userSpaceOnUse"
       id="clipPath16247"><path
         d="M 477.24,66.24 H 809.76 V 366.96 H 477.24 Z"
         id="path16245" /></clipPath><clipPath
       clipPathUnits="userSpaceOnUse"
       id="clipPath16261"><path
         d="M 429,0 H 858 V 426 H 429 Z"
         id="path16259" /></clipPath><clipPath
       clipPathUnits="userSpaceOnUse"
       id="clipPath16277"><path
         d="M 477.24,66.24 H 809.76 V 366.96 H 477.24 Z"
         id="path16275" /></clipPath><clipPath
       clipPathUnits="userSpaceOnUse"
       id="clipPath16287"><path
         d="M 429,0 H 858 V 426 H 429 Z"
         id="path16285" /></clipPath><clipPath
       clipPathUnits="userSpaceOnUse"
       id="clipPath16367"><path
         d="M 477.24,66.24 H 809.76 V 366.96 H 477.24 Z"
         id="path16365" /></clipPath></defs><g
     id="g16083"
     transform="matrix(0.35277776,0,0,-0.35277778,-5.0620427e-6,150.28334)"><path
       d="M 48.24,66.24 H 380.76 V 366.96 H 48.24 Z"
       style="fill:none;stroke:#000000;stroke-width:0.75;stroke-linecap:round;stroke-linejoin:round;stroke-miterlimit:10;stroke-dasharray:none;stroke-opacity:1"
       id="path16085" /></g><g
     id="g16087"
     transform="matrix(0.35277776,0,0,-0.35277778,-5.0620427e-6,150.28334)"><g
       id="g16089"
       clip-path="url(#clipPath16093)"><text
         xml:space="preserve"
         transform="matrix(1,0,0,-1,110.92,387.86)"
         style="font-variant:normal;font-weight:bold;font-size:24px;font-family:Helvetica;-inkscape-font-specification:Helvetica-Bold;writing-mode:lr-tb;fill:#000000;fill-opacity:1;fill-rule:nonzero;stroke:none"
         id="text16097"><tspan
           x="0 16.007999 24 37.344002 45.335999 58.68 65.351997 80.015999 93.360001 103.176 111.168 125.832 135.168 149.832 163.17599 171.168 177.84 192.504"
           y="0"
           id="tspan16095">State perturbation</tspan></text><text
         xml:space="preserve"
         transform="matrix(1,0,0,-1,183.94,11.52)"
         style="font-variant:normal;font-weight:normal;font-size:22px;font-family:Helvetica;-inkscape-font-specification:Helvetica;writing-mode:lr-tb;fill:#000000;fill-opacity:1;fill-rule:nonzero;stroke:none"
         id="text16101"><tspan
           x="0 13.442 18.326 36.652 48.883999 55"
           y="0"
           id="tspan16099">Time t</tspan></text><text
         xml:space="preserve"
         transform="matrix(0,1,1,0,17.61,141.12)"
         style="font-variant:normal;font-weight:normal;font-size:22px;font-family:Helvetica;-inkscape-font-specification:Helvetica;writing-mode:lr-tb;fill:#000000;fill-opacity:1;fill-rule:nonzero;stroke:none"
         id="text16105"><tspan
           x="0 14.674 20.790001 33.021999 39.138 51.369999 57.486 67.935997 80.167999 87.823997 92.708 104.94 116.732 121.616 133.84801 139.964"
           y="0"
           id="tspan16103">State variable y</tspan></text></g></g><g
     id="g16107"
     transform="matrix(0.35277776,0,0,-0.35277778,-5.0620427e-6,150.28334)"><path
       d="M 48.24,66.24 H 380.76"
       style="fill:none;stroke:#000000;stroke-width:0.75;stroke-linecap:round;stroke-linejoin:round;stroke-miterlimit:10;stroke-dasharray:none;stroke-opacity:1"
       id="path16109" /><path
       d="m 48.24,66.24 v -7.2"
       style="fill:none;stroke:#000000;stroke-width:0.75;stroke-linecap:round;stroke-linejoin:round;stroke-miterlimit:10;stroke-dasharray:none;stroke-opacity:1"
       id="path16111" /><path
       d="m 181.25,66.24 v -7.2"
       style="fill:none;stroke:#000000;stroke-width:0.75;stroke-linecap:round;stroke-linejoin:round;stroke-miterlimit:10;stroke-dasharray:none;stroke-opacity:1"
       id="path16113" /><path
       d="m 380.76,66.24 v -7.2"
       style="fill:none;stroke:#000000;stroke-width:0.75;stroke-linecap:round;stroke-linejoin:round;stroke-miterlimit:10;stroke-dasharray:none;stroke-opacity:1"
       id="path16115" /><text
       xml:space="preserve"
       transform="matrix(1,0,0,-1,42.12,43.86)"
       style="font-variant:normal;font-weight:normal;font-size:18px;font-family:Helvetica;-inkscape-font-specification:Helvetica;writing-mode:lr-tb;fill:#000000;fill-opacity:1;fill-rule:nonzero;stroke:none"
       id="text16119"><tspan
         x="0"
         y="0"
         id="tspan16117">t</tspan></text><text
       xml:space="preserve"
       transform="matrix(1,0,0,-1,47.13,40.57)"
       style="font-variant:normal;font-weight:normal;font-size:13px;font-family:Helvetica;-inkscape-font-specification:Helvetica;writing-mode:lr-tb;fill:#000000;fill-opacity:1;fill-rule:nonzero;stroke:none"
       id="text16123"><tspan
         x="0"
         y="0"
         id="tspan16121">0</tspan></text><text
       xml:space="preserve"
       transform="matrix(1,0,0,-1,176.75,40.45)"
       style="font-variant:normal;font-weight:normal;font-size:18px;font-family:Helvetica;-inkscape-font-specification:Helvetica;writing-mode:lr-tb;fill:#000000;fill-opacity:1;fill-rule:nonzero;stroke:none"
       id="text16127"><tspan
         x="0 5.0040002"
         y="0"
         id="tspan16125">t'</tspan></text><text
       xml:space="preserve"
       transform="matrix(1,0,0,-1,374.64,43.61)"
       style="font-variant:normal;font-weight:normal;font-size:18px;font-family:Helvetica;-inkscape-font-specification:Helvetica;writing-mode:lr-tb;fill:#000000;fill-opacity:1;fill-rule:nonzero;stroke:none"
       id="text16131"><tspan
         x="0"
         y="0"
         id="tspan16129">t</tspan></text><text
       xml:space="preserve"
       transform="matrix(1,0,0,-1,379.65,40.32)"
       style="font-variant:normal;font-weight:normal;font-size:13px;font-family:Helvetica;-inkscape-font-specification:Helvetica;writing-mode:lr-tb;fill:#000000;fill-opacity:1;fill-rule:nonzero;stroke:none"
       id="text16135"><tspan
         x="0"
         y="0"
         id="tspan16133">1</tspan></text><path
       d="M 48.24,66.24 V 85.62"
       style="fill:none;stroke:#000000;stroke-width:0.75;stroke-linecap:round;stroke-linejoin:round;stroke-miterlimit:10;stroke-dasharray:none;stroke-opacity:1"
       id="path16137" /><path
       d="m 48.24,66.24 h -7.2"
       style="fill:none;stroke:#000000;stroke-width:0.75;stroke-linecap:round;stroke-linejoin:round;stroke-miterlimit:10;stroke-dasharray:none;stroke-opacity:1"
       id="path16139" /><path
       d="m 48.24,85.62 h -7.2"
       style="fill:none;stroke:#000000;stroke-width:0.75;stroke-linecap:round;stroke-linejoin:round;stroke-miterlimit:10;stroke-dasharray:none;stroke-opacity:1"
       id="path16141" /><text
       xml:space="preserve"
       transform="matrix(1,0,0,-1,23.83,60.08)"
       style="font-variant:normal;font-weight:normal;font-size:18px;font-family:Helvetica;-inkscape-font-specification:Helvetica;writing-mode:lr-tb;fill:#000000;fill-opacity:1;fill-rule:nonzero;stroke:none"
       id="text16145"><tspan
         x="0"
         y="0"
         id="tspan16143">0</tspan></text><text
       xml:space="preserve"
       transform="matrix(1,0,0,-1,17.61,82.84)"
       style="font-variant:normal;font-weight:normal;font-size:18px;font-family:Helvetica;-inkscape-font-specification:Helvetica;writing-mode:lr-tb;fill:#000000;fill-opacity:1;fill-rule:nonzero;stroke:none"
       id="text16149"><tspan
         x="0"
         y="0"
         id="tspan16147">y</tspan></text><text
       xml:space="preserve"
       transform="matrix(1,0,0,-1,26.61,79.55)"
       style="font-variant:normal;font-weight:normal;font-size:13px;font-family:Helvetica;-inkscape-font-specification:Helvetica;writing-mode:lr-tb;fill:#000000;fill-opacity:1;fill-rule:nonzero;stroke:none"
       id="text16153"><tspan
         x="0"
         y="0"
         id="tspan16151">0</tspan></text></g><g
     id="g16155"
     transform="matrix(0.35277776,0,0,-0.35277778,-5.0620427e-6,150.28334)"><g
       id="g16157"
       clip-path="url(#clipPath16161)"><path
         d="m 181.25,195.37 0.33,0.26 0.33,0.27 0.34,0.28 0.33,0.28 0.33,0.3 0.33,0.3 0.34,0.32 0.33,0.32 0.33,0.33 0.33,0.34 0.34,0.35 0.33,0.35 0.33,0.37 0.33,0.37 0.34,0.38 0.33,0.39 0.33,0.39 0.33,0.4 0.34,0.41 0.33,0.42 0.33,0.43 0.33,0.43 0.34,0.44 0.33,0.45 0.33,0.45 0.33,0.46 0.34,0.47 0.33,0.47 0.33,0.48 0.33,0.49 0.34,0.49 0.33,0.5 0.33,0.51 0.33,0.51 0.34,0.52 0.33,0.53 0.33,0.53 0.33,0.53 0.34,0.54 0.33,0.55 0.33,0.55 0.33,0.56 0.34,0.56 0.33,0.57 0.33,0.57 0.33,0.58 0.34,0.59 0.33,0.58 0.33,0.6 0.33,0.59 0.34,0.61 0.33,0.6 0.33,0.61 0.33,0.62 0.34,0.62 0.33,0.62 0.33,0.63 0.33,0.63 0.34,0.63 0.33,0.64 0.33,0.64 0.33,0.65 0.34,0.65 0.33,0.65 0.33,0.66 0.33,0.65 0.34,0.67 0.33,0.66 0.33,0.67 0.33,0.67 0.34,0.67 0.33,0.67 0.33,0.68 0.33,0.68 0.34,0.68 0.33,0.69 0.33,0.68 0.33,0.69 0.34,0.69 0.33,0.69 0.33,0.7 0.33,0.69 0.34,0.7 0.33,0.7 0.33,0.69 0.33,0.7 0.34,0.71 0.33,0.7 0.33,0.7 0.33,0.71 0.34,0.7 0.33,0.71 0.33,0.7 0.33,0.71 0.34,0.7 0.33,0.71 0.33,0.71 0.33,0.71 0.34,0.7 0.33,0.71 0.33,0.71 0.34,0.7 0.33,0.71 0.33,0.71 0.33,0.7 0.34,0.71 0.33,0.7 0.33,0.71 0.33,0.7 0.34,0.7 0.33,0.7 0.33,0.7 0.33,0.7 0.34,0.7 0.33,0.7 0.33,0.69 0.33,0.69 0.34,0.7 0.33,0.69 0.33,0.69 0.33,0.68 0.34,0.69 0.33,0.68 0.33,0.68 0.33,0.68 0.34,0.68 0.33,0.68 0.33,0.67 0.33,0.67 0.34,0.67 0.33,0.66 0.33,0.67 0.33,0.66 0.34,0.66 0.33,0.66 0.33,0.65 0.33,0.65 0.34,0.65 0.33,0.64 0.33,0.65 0.33,0.64 0.34,0.63 0.33,0.64 0.33,0.63 0.33,0.63 0.34,0.62 0.33,0.62 0.33,0.62 0.33,0.62 0.34,0.61 0.33,0.61 0.33,0.61 0.33,0.6 0.34,0.6 0.33,0.59 0.33,0.59 0.33,0.59 0.34,0.59 0.33,0.58 0.33,0.58 0.33,0.57 0.34,0.57 0.33,0.57 0.33,0.56 0.33,0.56 0.34,0.56 0.33,0.55 0.33,0.55 0.33,0.54 0.34,0.54 0.33,0.54 0.33,0.54 0.33,0.53 0.34,0.52 0.33,0.52 0.33,0.52 0.33,0.52 0.34,0.51 0.33,0.5 0.33,0.51 0.33,0.5 0.34,0.49 0.33,0.49 0.33,0.49 0.33,0.48 0.34,0.48 0.33,0.48 0.33,0.47 0.33,0.47 0.34,0.46 0.33,0.46 0.33,0.46 0.33,0.45 0.34,0.45 0.33,0.45 0.33,0.44 0.33,0.43 0.34,0.44 0.33,0.43 0.33,0.42 0.33,0.43 0.34,0.41 0.33,0.42 0.33,0.41 0.33,0.41 0.34,0.4 0.33,0.4 0.33,0.39 0.33,0.4 0.34,0.38 0.33,0.39 0.33,0.38 0.33,0.38 0.34,0.37 0.33,0.37 0.33,0.37 0.33,0.36 0.34,0.36 0.33,0.35 0.33,0.36 0.33,0.34 0.34,0.35 0.33,0.34 0.33,0.34 0.34,0.33 0.33,0.34 0.33,0.32 0.33,0.33 0.34,0.32 0.33,0.32 0.33,0.31 0.33,0.31 0.34,0.31 0.33,0.31 0.33,0.3 0.33,0.3 0.34,0.29 0.33,0.29 0.33,0.29 0.33,0.29 0.34,0.28 0.33,0.28 0.33,0.28 0.33,0.27 0.34,0.27 0.33,0.27 0.33,0.26 0.33,0.26 0.34,0.26 0.33,0.26 0.33,0.25 0.33,0.25 0.34,0.25 0.33,0.24 0.33,0.24 0.33,0.24 0.34,0.24 0.33,0.23 0.33,0.23 0.33,0.23 0.34,0.23 0.33,0.22 0.33,0.22 0.33,0.22 0.34,0.21 0.33,0.22 0.33,0.21 0.33,0.2 0.34,0.21 0.33,0.2 0.33,0.2 0.33,0.2 0.34,0.2 0.33,0.19 0.33,0.19 0.33,0.19 0.34,0.19 0.33,0.18 0.33,0.18 0.33,0.18 0.34,0.18 0.33,0.18 0.33,0.17 0.33,0.17 0.34,0.17 0.33,0.17 0.33,0.16 0.33,0.16 0.34,0.17 0.33,0.15 0.33,0.16 0.33,0.16 0.34,0.15 0.33,0.15 0.33,0.15 0.33,0.15 0.34,0.14 0.33,0.15 0.33,0.14 0.33,0.14 0.34,0.14 0.33,0.14 0.33,0.13 0.33,0.14 0.34,0.13 0.33,0.13 0.33,0.13 0.33,0.12 0.34,0.13 0.33,0.12 0.33,0.12 0.33,0.12 0.34,0.12 0.33,0.12 0.33,0.12 0.33,0.11 0.34,0.11 0.33,0.12 0.33,0.11 0.33,0.1 0.34,0.11 0.33,0.11 0.33,0.1 0.33,0.11 0.34,0.1 0.33,0.1 0.33,0.1 0.33,0.09 0.34,0.1 0.33,0.1 0.33,0.09 0.33,0.09 0.34,0.1 0.33,0.09 0.33,0.09 0.33,0.08 0.34,0.09 0.33,0.09 0.33,0.08 0.33,0.08 0.34,0.09 0.33,0.08 0.33,0.08 0.33,0.08 0.34,0.08 0.33,0.07 0.33,0.08 0.33,0.07 0.34,0.08 0.33,0.07 0.33,0.07 0.34,0.08 0.33,0.07 0.33,0.06 0.33,0.07 0.34,0.07 0.33,0.07 0.33,0.06 0.33,0.07 0.34,0.06 0.33,0.06 0.33,0.07 0.33,0.06 0.34,0.06 0.33,0.06 0.33,0.06 0.33,0.06 0.34,0.05 0.33,0.06 0.33,0.06 0.33,0.05 0.34,0.05 0.33,0.06 0.33,0.05 0.33,0.05 0.34,0.05 0.33,0.06 0.33,0.05 0.33,0.05 0.34,0.04 0.33,0.05 0.33,0.05 0.33,0.05 0.34,0.04 0.33,0.05 0.33,0.04 0.33,0.05 0.34,0.04 0.33,0.04 0.33,0.05 0.33,0.04 0.34,0.04 0.33,0.04 0.33,0.04 0.33,0.04 0.34,0.04 0.33,0.04 0.33,0.04 0.33,0.03 0.34,0.04 0.33,0.04 0.33,0.03 0.33,0.04 0.34,0.03 0.33,0.04 0.33,0.03 0.33,0.03 0.34,0.04 0.33,0.03 0.33,0.03 0.33,0.03 0.34,0.04 0.33,0.03 0.33,0.03 0.33,0.03 0.34,0.03 0.33,0.03 0.33,0.02 0.33,0.03 0.34,0.03 0.33,0.03 0.33,0.03 0.33,0.02 0.34,0.03 0.33,0.03 0.33,0.02 0.33,0.03 0.34,0.02 0.33,0.03 0.33,0.02 0.33,0.02 0.34,0.03 0.33,0.02 0.33,0.02 0.33,0.03 0.34,0.02 0.33,0.02 0.33,0.02 0.33,0.02 0.34,0.03 0.33,0.02 0.33,0.02 0.33,0.02 0.34,0.02 0.33,0.02 0.33,0.02 0.33,0.02 0.34,0.01 0.33,0.02 0.33,0.02 0.33,0.02 0.34,0.02 0.33,0.02 0.33,0.01 0.33,0.02 0.34,0.02 0.33,0.01 0.33,0.02 0.33,0.02 0.34,0.01 0.33,0.02 0.33,0.01 0.33,0.02 0.34,0.01 0.33,0.02 0.33,0.01 0.33,0.02 0.34,0.01 0.33,0.02 0.33,0.01 0.33,0.01 0.34,0.02 0.33,0.01 0.33,0.01 0.33,0.02 0.34,0.01 0.33,0.01 0.33,0.01 0.34,0.02 0.33,0.01 0.33,0.01 0.33,0.01 0.34,0.01 0.33,0.01 0.33,0.01 0.33,0.02 0.34,0.01 0.33,0.01 0.33,0.01 0.33,0.01 0.34,0.01 0.33,0.01 0.33,0.01 0.33,0.01 0.34,0.01 0.33,0.01 0.33,0.01 0.33,0.01 0.34,0.01 h 0.33 l 0.33,0.01 0.33,0.01 0.34,0.01 0.33,0.01 0.33,0.01 0.33,0.01 h 0.34 l 0.33,0.01 0.33,0.01 0.33,0.01 0.34,0.01 h 0.33 l 0.33,0.01 0.33,0.01 0.34,0.01 h 0.33 l 0.33,0.01 0.33,0.01 h 0.34 l 0.33,0.01 0.33,0.01 h 0.33 l 0.34,0.01 0.33,0.01 h 0.33 l 0.33,0.01 0.34,0.01 h 0.33 l 0.33,0.01 h 0.33 l 0.34,0.01 h 0.33 l 0.33,0.01 0.33,0.01 h 0.34 l 0.33,0.01 h 0.33 l 0.33,0.01 h 0.34 l 0.33,0.01 h 0.33 l 0.33,0.01 h 0.34 l 0.33,0.01 h 0.33 l 0.33,0.01 h 0.34 l 0.33,0.01 h 0.33 0.33 l 0.34,0.01 h 0.33 l 0.33,0.01 h 0.33 l 0.34,0.01 h 0.33 0.33 l 0.33,0.01 h 0.34 l 0.33,0.01 h 0.33 0.33 l 0.34,0.01 h 0.33 0.33 l 0.33,0.01 h 0.34 0.33 l 0.33,0.01 h 0.33 0.34 l 0.33,0.01 h 0.33 0.33 l 0.34,0.01 h 0.33 0.33 0.33 l 0.34,0.01 h 0.33 0.33 l 0.33,0.01 h 0.34 0.33 0.33 l 0.33,0.01 h 0.34 0.33 0.33 l 0.33,0.01 h 0.34 0.33 0.33 l 0.33,0.01 h 0.34 0.33 0.33 l 0.33,0.01 h 0.34 0.33 v -0.03 h -0.33 -0.34 -0.33 l -0.33,-0.01 h -0.33 -0.34 l -0.33,-0.01 h -0.33 -0.33 -0.34 l -0.33,-0.01 h -0.33 -0.33 l -0.34,-0.01 h -0.33 -0.33 l -0.33,-0.01 h -0.34 -0.33 l -0.33,-0.01 h -0.33 -0.34 l -0.33,-0.01 h -0.33 -0.33 l -0.34,-0.01 h -0.33 l -0.33,-0.01 h -0.33 -0.34 l -0.33,-0.01 h -0.33 l -0.33,-0.01 h -0.34 -0.33 l -0.33,-0.01 h -0.33 l -0.34,-0.01 h -0.33 l -0.33,-0.01 h -0.33 l -0.34,-0.01 h -0.33 l -0.33,-0.01 h -0.33 l -0.34,-0.01 h -0.33 l -0.33,-0.01 h -0.33 l -0.34,-0.01 h -0.33 l -0.33,-0.01 h -0.33 l -0.34,-0.01 -0.33,-0.01 h -0.33 l -0.33,-0.01 h -0.34 l -0.33,-0.01 -0.33,-0.01 h -0.33 l -0.34,-0.01 -0.33,-0.01 h -0.33 l -0.33,-0.01 -0.34,-0.01 h -0.33 l -0.33,-0.01 -0.33,-0.01 h -0.34 l -0.33,-0.01 -0.33,-0.01 -0.33,-0.01 h -0.34 l -0.33,-0.01 -0.33,-0.01 -0.33,-0.01 -0.34,-0.01 h -0.33 l -0.33,-0.01 -0.33,-0.01 -0.34,-0.01 -0.33,-0.01 -0.33,-0.01 -0.33,-0.01 -0.34,-0.01 -0.33,-0.01 -0.33,-0.01 -0.33,-0.01 -0.34,-0.01 -0.33,-0.01 -0.33,-0.01 -0.33,-0.01 -0.34,-0.01 -0.33,-0.01 -0.33,-0.01 -0.33,-0.01 -0.34,-0.01 -0.33,-0.01 -0.33,-0.01 -0.33,-0.01 -0.34,-0.02 -0.33,-0.01 -0.33,-0.01 -0.33,-0.01 -0.34,-0.01 -0.33,-0.02 -0.33,-0.01 -0.33,-0.01 -0.34,-0.02 -0.33,-0.01 -0.33,-0.01 -0.33,-0.02 -0.34,-0.01 -0.33,-0.01 -0.33,-0.02 -0.33,-0.01 -0.34,-0.02 -0.33,-0.01 -0.33,-0.02 -0.33,-0.01 -0.34,-0.02 -0.33,-0.02 -0.33,-0.01 -0.34,-0.02 -0.33,-0.02 -0.33,-0.01 -0.33,-0.02 -0.34,-0.02 -0.33,-0.02 -0.33,-0.01 -0.33,-0.02 -0.34,-0.02 -0.33,-0.02 -0.33,-0.02 -0.33,-0.02 -0.34,-0.02 -0.33,-0.02 -0.33,-0.02 -0.33,-0.02 -0.34,-0.02 -0.33,-0.02 -0.33,-0.02 -0.33,-0.02 -0.34,-0.03 -0.33,-0.02 -0.33,-0.02 -0.33,-0.03 -0.34,-0.02 -0.33,-0.02 -0.33,-0.03 -0.33,-0.02 -0.34,-0.03 -0.33,-0.02 -0.33,-0.03 -0.33,-0.02 -0.34,-0.03 -0.33,-0.03 -0.33,-0.03 -0.33,-0.02 -0.34,-0.03 -0.33,-0.03 -0.33,-0.03 -0.33,-0.03 -0.34,-0.03 -0.33,-0.03 -0.33,-0.03 -0.33,-0.03 -0.34,-0.03 -0.33,-0.03 -0.33,-0.04 -0.33,-0.03 -0.34,-0.03 -0.33,-0.04 -0.33,-0.03 -0.33,-0.04 -0.34,-0.03 -0.33,-0.04 -0.33,-0.04 -0.33,-0.03 -0.34,-0.04 -0.33,-0.04 -0.33,-0.04 -0.33,-0.04 -0.34,-0.04 -0.33,-0.04 -0.33,-0.04 -0.33,-0.04 -0.34,-0.05 -0.33,-0.04 -0.33,-0.04 -0.33,-0.05 -0.34,-0.04 -0.33,-0.05 -0.33,-0.04 -0.33,-0.05 -0.34,-0.05 -0.33,-0.05 -0.33,-0.05 -0.33,-0.05 -0.34,-0.05 -0.33,-0.05 -0.33,-0.05 -0.33,-0.05 -0.34,-0.06 -0.33,-0.05 -0.33,-0.06 -0.33,-0.05 -0.34,-0.06 -0.33,-0.06 -0.33,-0.06 -0.33,-0.06 -0.34,-0.06 -0.33,-0.06 -0.33,-0.06 -0.33,-0.06 -0.34,-0.07 -0.33,-0.06 -0.33,-0.07 -0.33,-0.07 -0.34,-0.06 -0.33,-0.07 -0.33,-0.07 -0.33,-0.07 -0.34,-0.08 -0.33,-0.07 -0.33,-0.07 -0.33,-0.08 -0.34,-0.07 -0.33,-0.08 -0.33,-0.08 -0.33,-0.08 -0.34,-0.08 -0.33,-0.08 -0.33,-0.09 -0.33,-0.08 -0.34,-0.08 -0.33,-0.09 -0.33,-0.09 -0.33,-0.09 -0.34,-0.09 -0.33,-0.09 -0.33,-0.09 -0.33,-0.1 -0.34,-0.09 -0.33,-0.1 -0.33,-0.1 -0.33,-0.1 -0.34,-0.1 -0.33,-0.1 -0.33,-0.11 -0.34,-0.1 -0.33,-0.11 -0.33,-0.11 -0.33,-0.11 -0.34,-0.11 -0.33,-0.12 -0.33,-0.11 -0.33,-0.12 -0.34,-0.12 -0.33,-0.12 -0.33,-0.12 -0.33,-0.12 -0.34,-0.13 -0.33,-0.13 -0.33,-0.12 -0.33,-0.14 -0.34,-0.13 -0.33,-0.13 -0.33,-0.14 -0.33,-0.14 -0.34,-0.14 -0.33,-0.14 -0.33,-0.14 -0.33,-0.15 -0.34,-0.15 -0.33,-0.15 -0.33,-0.15 -0.33,-0.15 -0.34,-0.16 -0.33,-0.16 -0.33,-0.16 -0.33,-0.16 -0.34,-0.17 -0.33,-0.17 -0.33,-0.17 -0.33,-0.17 -0.34,-0.17 -0.33,-0.18 -0.33,-0.18 -0.33,-0.18 -0.34,-0.19 -0.33,-0.18 -0.33,-0.19 -0.33,-0.19 -0.34,-0.2 -0.33,-0.2 -0.33,-0.2 -0.33,-0.2 -0.34,-0.2 -0.33,-0.21 -0.33,-0.21 -0.33,-0.22 -0.34,-0.21 -0.33,-0.22 -0.33,-0.22 -0.33,-0.23 -0.34,-0.23 -0.33,-0.23 -0.33,-0.23 -0.33,-0.24 -0.34,-0.24 -0.33,-0.24 -0.33,-0.25 -0.33,-0.25 -0.34,-0.25 -0.33,-0.26 -0.33,-0.26 -0.33,-0.26 -0.34,-0.27 -0.33,-0.27 -0.33,-0.27 -0.33,-0.28 -0.34,-0.28 -0.33,-0.29 -0.33,-0.28 -0.33,-0.3 -0.34,-0.29 -0.33,-0.3 -0.33,-0.3 -0.33,-0.31 -0.34,-0.31 -0.33,-0.31 -0.33,-0.32 -0.33,-0.32 -0.34,-0.33 -0.33,-0.33 -0.33,-0.33 -0.33,-0.34 -0.34,-0.34 -0.33,-0.35 -0.33,-0.35 -0.33,-0.35 -0.34,-0.36 -0.33,-0.37 -0.33,-0.36 -0.33,-0.38 -0.34,-0.37 -0.33,-0.38 -0.33,-0.39 -0.33,-0.39 -0.34,-0.39 -0.33,-0.4 -0.33,-0.41 -0.33,-0.41 -0.34,-0.41 -0.33,-0.42 -0.33,-0.42 -0.33,-0.43 -0.34,-0.43 -0.33,-0.44 -0.33,-0.44 -0.33,-0.45 -0.34,-0.45 -0.33,-0.45 -0.33,-0.47 -0.33,-0.46 -0.34,-0.48 -0.33,-0.47 -0.33,-0.49 -0.33,-0.48 -0.34,-0.5 -0.33,-0.49 -0.33,-0.51 -0.33,-0.51 -0.34,-0.51 -0.33,-0.52 -0.33,-0.52 -0.34,-0.53 -0.33,-0.54 -0.33,-0.54 -0.33,-0.55 -0.34,-0.55 -0.33,-0.55 -0.33,-0.57 -0.33,-0.56 -0.34,-0.58 -0.33,-0.58 -0.33,-0.58 -0.33,-0.59 -0.34,-0.6 -0.33,-0.6 -0.33,-0.61 -0.33,-0.61 -0.34,-0.62 -0.33,-0.62 -0.33,-0.63 -0.33,-0.64 -0.34,-0.64 -0.33,-0.65 -0.33,-0.65 -0.33,-0.66 -0.34,-0.66 -0.33,-0.67 -0.33,-0.68 -0.33,-0.68 -0.34,-0.68 -0.33,-0.7 -0.33,-0.69 -0.33,-0.71 -0.34,-0.71 -0.33,-0.71 -0.33,-0.72 -0.33,-0.73 -0.34,-0.73 -0.33,-0.74 -0.33,-0.74 -0.33,-0.75 -0.34,-0.75 -0.33,-0.76 -0.33,-0.76 -0.33,-0.77 -0.34,-0.78 -0.33,-0.78 -0.33,-0.78 -0.33,-0.79 -0.34,-0.8 -0.33,-0.8 -0.33,-0.81 -0.33,-0.81 -0.34,-0.82 -0.33,-0.82 -0.33,-0.82 -0.33,-0.84 -0.34,-0.83 -0.33,-0.84 -0.33,-0.85 -0.33,-0.85 -0.34,-0.85 -0.33,-0.86 -0.33,-0.87 -0.33,-0.87 -0.34,-0.87 -0.33,-0.88 -0.33,-0.88 -0.33,-0.89 -0.34,-0.89 -0.33,-0.89 -0.33,-0.9 -0.33,-0.9 -0.34,-0.91 -0.33,-0.91 -0.33,-0.91 -0.33,-0.92 -0.34,-0.92 -0.33,-0.92 -0.33,-0.93 -0.33,-0.93 -0.34,-0.93 -0.33,-0.94 -0.33,-0.94 -0.33,-0.94 -0.34,-0.95 -0.33,-0.94 -0.33,-0.95 -0.33,-0.96 -0.34,-0.95 -0.33,-0.96 -0.33,-0.96 -0.33,-0.96 -0.34,-0.97 -0.33,-0.96 -0.33,-0.97 -0.33,-0.97 -0.34,-0.97 -0.33,-0.98 -0.33,-0.97 -0.33,-0.97 -0.34,-0.98 -0.33,-0.98 -0.33,-0.98 -0.33,-0.98 -0.34,-0.98 -0.33,-0.98 -0.33,-0.98 -0.33,-0.98 -0.34,-0.98 -0.33,-0.99 -0.33,-0.98 -0.33,-0.98 -0.34,-0.98 -0.33,-0.98 -0.33,-0.99 -0.33,-0.98 -0.34,-0.98 -0.33,-0.98 -0.33,-0.98 -0.33,-0.97 -0.34,-0.98 -0.33,-0.98 -0.33,-0.97 -0.34,-0.98 -0.33,-0.97 -0.33,-0.97 -0.33,-0.97 -0.34,-0.96 -0.33,-0.97 -0.33,-0.96 -0.33,-0.96 -0.34,-0.96 -0.33,-0.96 -0.33,-0.95 -0.33,-0.95 -0.34,-0.95 -0.33,-0.95 -0.33,-0.94 -0.33,-0.94 -0.34,-0.94 -0.33,-0.94 -0.33,-0.93 -0.33,-0.93 -0.34,-0.92 -0.33,-0.92 -0.33,-0.92 -0.33,-0.92 -0.34,-0.91 -0.33,-0.91 -0.33,-0.9 -0.33,-0.9 -0.34,-0.89 -0.33,-0.9 -0.33,-0.88 -0.33,-0.89 -0.34,-0.88 -0.33,-0.87 -0.33,-0.87 -0.33,-0.87 -0.34,-0.86 -0.33,-0.86 -0.33,-0.85 -0.33,-0.85 -0.34,-0.84 -0.33,-0.84 -0.33,-0.83 -0.33,-0.83 -0.34,-0.82 -0.33,-0.82 -0.33,-0.82 -0.33,-0.81 -0.34,-0.8 -0.33,-0.8 -0.33,-0.79 -0.33,-0.79 -0.34,-0.78 -0.33,-0.78 -0.33,-0.77 -0.33,-0.77 -0.34,-0.76 -0.33,-0.75 -0.33,-0.75 -0.33,-0.75 -0.34,-0.74 -0.33,-0.73 -0.33,-0.73 -0.33,-0.72 -0.34,-0.72 -0.33,-0.71 -0.33,-0.71 -0.33,-0.7 -0.34,-0.69 -0.33,-0.69 -0.33,-0.68 -0.33,-0.68 -0.34,-0.67 -0.33,-0.67 -0.33,-0.66 -0.33,-0.65 -0.34,-0.65 -0.33,-0.65 -0.33,-0.63 -0.33,-0.64 -0.34,-0.62 -0.33,-0.62 -0.33,-0.62 -0.33,-0.61 -0.34,-0.6 -0.33,-0.6 -0.33,-0.59 -0.33,-0.59 -0.34,-0.58 -0.33,-0.58 -0.33,-0.57 -0.33,-0.57 -0.34,-0.55 -0.33,-0.56 -0.33,-0.55 -0.33,-0.54 -0.34,-0.54 -0.33,-0.53 -0.33,-0.53 z"
         style="fill:#d9d9d9;fill-opacity:1;fill-rule:nonzero;stroke:none"
         id="path16163" /><path
         d="m 181.25,195.37 0.33,0.26 0.33,0.27 0.34,0.28 0.33,0.28 0.33,0.3 0.33,0.3 0.34,0.32 0.33,0.32 0.33,0.33 0.33,0.34 0.34,0.35 0.33,0.35 0.33,0.37 0.33,0.37 0.34,0.38 0.33,0.39 0.33,0.39 0.33,0.4 0.34,0.41 0.33,0.42 0.33,0.43 0.33,0.43 0.34,0.44 0.33,0.45 0.33,0.45 0.33,0.46 0.34,0.47 0.33,0.47 0.33,0.48 0.33,0.49 0.34,0.49 0.33,0.5 0.33,0.51 0.33,0.51 0.34,0.52 0.33,0.53 0.33,0.53 0.33,0.53 0.34,0.54 0.33,0.55 0.33,0.55 0.33,0.56 0.34,0.56 0.33,0.57 0.33,0.57 0.33,0.58 0.34,0.59 0.33,0.58 0.33,0.6 0.33,0.59 0.34,0.61 0.33,0.6 0.33,0.61 0.33,0.62 0.34,0.62 0.33,0.62 0.33,0.63 0.33,0.63 0.34,0.63 0.33,0.64 0.33,0.64 0.33,0.65 0.34,0.65 0.33,0.65 0.33,0.66 0.33,0.65 0.34,0.67 0.33,0.66 0.33,0.67 0.33,0.67 0.34,0.67 0.33,0.67 0.33,0.68 0.33,0.68 0.34,0.68 0.33,0.69 0.33,0.68 0.33,0.69 0.34,0.69 0.33,0.69 0.33,0.7 0.33,0.69 0.34,0.7 0.33,0.7 0.33,0.69 0.33,0.7 0.34,0.71 0.33,0.7 0.33,0.7 0.33,0.71 0.34,0.7 0.33,0.71 0.33,0.7 0.33,0.71 0.34,0.7 0.33,0.71 0.33,0.71 0.33,0.71 0.34,0.7 0.33,0.71 0.33,0.71 0.34,0.7 0.33,0.71 0.33,0.71 0.33,0.7 0.34,0.71 0.33,0.7 0.33,0.71 0.33,0.7 0.34,0.7 0.33,0.7 0.33,0.7 0.33,0.7 0.34,0.7 0.33,0.7 0.33,0.69 0.33,0.69 0.34,0.7 0.33,0.69 0.33,0.69 0.33,0.68 0.34,0.69 0.33,0.68 0.33,0.68 0.33,0.68 0.34,0.68 0.33,0.68 0.33,0.67 0.33,0.67 0.34,0.67 0.33,0.66 0.33,0.67 0.33,0.66 0.34,0.66 0.33,0.66 0.33,0.65 0.33,0.65 0.34,0.65 0.33,0.64 0.33,0.65 0.33,0.64 0.34,0.63 0.33,0.64 0.33,0.63 0.33,0.63 0.34,0.62 0.33,0.62 0.33,0.62 0.33,0.62 0.34,0.61 0.33,0.61 0.33,0.61 0.33,0.6 0.34,0.6 0.33,0.59 0.33,0.59 0.33,0.59 0.34,0.59 0.33,0.58 0.33,0.58 0.33,0.57 0.34,0.57 0.33,0.57 0.33,0.56 0.33,0.56 0.34,0.56 0.33,0.55 0.33,0.55 0.33,0.54 0.34,0.54 0.33,0.54 0.33,0.54 0.33,0.53 0.34,0.52 0.33,0.52 0.33,0.52 0.33,0.52 0.34,0.51 0.33,0.5 0.33,0.51 0.33,0.5 0.34,0.49 0.33,0.49 0.33,0.49 0.33,0.48 0.34,0.48 0.33,0.48 0.33,0.47 0.33,0.47 0.34,0.46 0.33,0.46 0.33,0.46 0.33,0.45 0.34,0.45 0.33,0.45 0.33,0.44 0.33,0.43 0.34,0.44 0.33,0.43 0.33,0.42 0.33,0.43 0.34,0.41 0.33,0.42 0.33,0.41 0.33,0.41 0.34,0.4 0.33,0.4 0.33,0.39 0.33,0.4 0.34,0.38 0.33,0.39 0.33,0.38 0.33,0.38 0.34,0.37 0.33,0.37 0.33,0.37 0.33,0.36 0.34,0.36 0.33,0.35 0.33,0.36 0.33,0.34 0.34,0.35 0.33,0.34 0.33,0.34 0.34,0.33 0.33,0.34 0.33,0.32 0.33,0.33 0.34,0.32 0.33,0.32 0.33,0.31 0.33,0.31 0.34,0.31 0.33,0.31 0.33,0.3 0.33,0.3 0.34,0.29 0.33,0.29 0.33,0.29 0.33,0.29 0.34,0.28 0.33,0.28 0.33,0.28 0.33,0.27 0.34,0.27 0.33,0.27 0.33,0.26 0.33,0.26 0.34,0.26 0.33,0.26 0.33,0.25 0.33,0.25 0.34,0.25 0.33,0.24 0.33,0.24 0.33,0.24 0.34,0.24 0.33,0.23 0.33,0.23 0.33,0.23 0.34,0.23 0.33,0.22 0.33,0.22 0.33,0.22 0.34,0.21 0.33,0.22 0.33,0.21 0.33,0.2 0.34,0.21 0.33,0.2 0.33,0.2 0.33,0.2 0.34,0.2 0.33,0.19 0.33,0.19 0.33,0.19 0.34,0.19 0.33,0.18 0.33,0.18 0.33,0.18 0.34,0.18 0.33,0.18 0.33,0.17 0.33,0.17 0.34,0.17 0.33,0.17 0.33,0.16 0.33,0.16 0.34,0.17 0.33,0.15 0.33,0.16 0.33,0.16 0.34,0.15 0.33,0.15 0.33,0.15 0.33,0.15 0.34,0.14 0.33,0.15 0.33,0.14 0.33,0.14 0.34,0.14 0.33,0.14 0.33,0.13 0.33,0.14 0.34,0.13 0.33,0.13 0.33,0.13 0.33,0.12 0.34,0.13 0.33,0.12 0.33,0.12 0.33,0.12 0.34,0.12 0.33,0.12 0.33,0.12 0.33,0.11 0.34,0.11 0.33,0.12 0.33,0.11 0.33,0.1 0.34,0.11 0.33,0.11 0.33,0.1 0.33,0.11 0.34,0.1 0.33,0.1 0.33,0.1 0.33,0.09 0.34,0.1 0.33,0.1 0.33,0.09 0.33,0.09 0.34,0.1 0.33,0.09 0.33,0.09 0.33,0.08 0.34,0.09 0.33,0.09 0.33,0.08 0.33,0.08 0.34,0.09 0.33,0.08 0.33,0.08 0.33,0.08 0.34,0.08 0.33,0.07 0.33,0.08 0.33,0.07 0.34,0.08 0.33,0.07 0.33,0.07 0.34,0.08 0.33,0.07 0.33,0.06 0.33,0.07 0.34,0.07 0.33,0.07 0.33,0.06 0.33,0.07 0.34,0.06 0.33,0.06 0.33,0.07 0.33,0.06 0.34,0.06 0.33,0.06 0.33,0.06 0.33,0.06 0.34,0.05 0.33,0.06 0.33,0.06 0.33,0.05 0.34,0.05 0.33,0.06 0.33,0.05 0.33,0.05 0.34,0.05 0.33,0.06 0.33,0.05 0.33,0.05 0.34,0.04 0.33,0.05 0.33,0.05 0.33,0.05 0.34,0.04 0.33,0.05 0.33,0.04 0.33,0.05 0.34,0.04 0.33,0.04 0.33,0.05 0.33,0.04 0.34,0.04 0.33,0.04 0.33,0.04 0.33,0.04 0.34,0.04 0.33,0.04 0.33,0.04 0.33,0.03 0.34,0.04 0.33,0.04 0.33,0.03 0.33,0.04 0.34,0.03 0.33,0.04 0.33,0.03 0.33,0.03 0.34,0.04 0.33,0.03 0.33,0.03 0.33,0.03 0.34,0.04 0.33,0.03 0.33,0.03 0.33,0.03 0.34,0.03 0.33,0.03 0.33,0.02 0.33,0.03 0.34,0.03 0.33,0.03 0.33,0.03 0.33,0.02 0.34,0.03 0.33,0.03 0.33,0.02 0.33,0.03 0.34,0.02 0.33,0.03 0.33,0.02 0.33,0.02 0.34,0.03 0.33,0.02 0.33,0.02 0.33,0.03 0.34,0.02 0.33,0.02 0.33,0.02 0.33,0.02 0.34,0.03 0.33,0.02 0.33,0.02 0.33,0.02 0.34,0.02 0.33,0.02 0.33,0.02 0.33,0.02 0.34,0.01 0.33,0.02 0.33,0.02 0.33,0.02 0.34,0.02 0.33,0.02 0.33,0.01 0.33,0.02 0.34,0.02 0.33,0.01 0.33,0.02 0.33,0.02 0.34,0.01 0.33,0.02 0.33,0.01 0.33,0.02 0.34,0.01 0.33,0.02 0.33,0.01 0.33,0.02 0.34,0.01 0.33,0.02 0.33,0.01 0.33,0.01 0.34,0.02 0.33,0.01 0.33,0.01 0.33,0.02 0.34,0.01 0.33,0.01 0.33,0.01 0.34,0.02 0.33,0.01 0.33,0.01 0.33,0.01 0.34,0.01 0.33,0.01 0.33,0.01 0.33,0.02 0.34,0.01 0.33,0.01 0.33,0.01 0.33,0.01 0.34,0.01 0.33,0.01 0.33,0.01 0.33,0.01 0.34,0.01 0.33,0.01 0.33,0.01 0.33,0.01 0.34,0.01 h 0.33 l 0.33,0.01 0.33,0.01 0.34,0.01 0.33,0.01 0.33,0.01 0.33,0.01 h 0.34 l 0.33,0.01 0.33,0.01 0.33,0.01 0.34,0.01 h 0.33 l 0.33,0.01 0.33,0.01 0.34,0.01 h 0.33 l 0.33,0.01 0.33,0.01 h 0.34 l 0.33,0.01 0.33,0.01 h 0.33 l 0.34,0.01 0.33,0.01 h 0.33 l 0.33,0.01 0.34,0.01 h 0.33 l 0.33,0.01 h 0.33 l 0.34,0.01 h 0.33 l 0.33,0.01 0.33,0.01 h 0.34 l 0.33,0.01 h 0.33 l 0.33,0.01 h 0.34 l 0.33,0.01 h 0.33 l 0.33,0.01 h 0.34 l 0.33,0.01 h 0.33 l 0.33,0.01 h 0.34 l 0.33,0.01 h 0.33 0.33 l 0.34,0.01 h 0.33 l 0.33,0.01 h 0.33 l 0.34,0.01 h 0.33 0.33 l 0.33,0.01 h 0.34 l 0.33,0.01 h 0.33 0.33 l 0.34,0.01 h 0.33 0.33 l 0.33,0.01 h 0.34 0.33 l 0.33,0.01 h 0.33 0.34 l 0.33,0.01 h 0.33 0.33 l 0.34,0.01 h 0.33 0.33 0.33 l 0.34,0.01 h 0.33 0.33 l 0.33,0.01 h 0.34 0.33 0.33 l 0.33,0.01 h 0.34 0.33 0.33 l 0.33,0.01 h 0.34 0.33 0.33 l 0.33,0.01 h 0.34 0.33 0.33 l 0.33,0.01 h 0.34 0.33"
         style="fill:none;stroke:#000000;stroke-width:2.25;stroke-linecap:round;stroke-linejoin:round;stroke-miterlimit:10;stroke-dasharray:6.75, 11.25;stroke-dashoffset:0;stroke-opacity:1"
         id="path16165" /><path
         d="m 48.24,85.62 0.33,0.01 0.34,0.01 h 0.33 l 0.33,0.01 h 0.33 l 0.34,0.01 0.33,0.01 h 0.33 l 0.33,0.01 h 0.34 l 0.33,0.01 h 0.33 l 0.33,0.01 h 0.34 l 0.33,0.01 0.33,0.01 h 0.33 l 0.34,0.01 h 0.33 l 0.33,0.01 h 0.33 l 0.34,0.01 h 0.33 l 0.33,0.01 h 0.33 l 0.34,0.01 h 0.33 l 0.33,0.01 0.33,0.01 h 0.34 l 0.33,0.01 h 0.33 l 0.33,0.01 h 0.34 l 0.33,0.01 h 0.33 l 0.33,0.01 h 0.34 l 0.33,0.01 h 0.33 l 0.33,0.01 h 0.34 l 0.33,0.01 0.33,0.01 h 0.33 l 0.34,0.01 h 0.33 l 0.33,0.01 h 0.33 l 0.34,0.01 h 0.33 l 0.33,0.01 0.33,0.01 h 0.34 l 0.33,0.01 h 0.33 l 0.33,0.01 h 0.34 l 0.33,0.01 0.33,0.01 h 0.33 l 0.34,0.01 h 0.33 l 0.33,0.01 0.33,0.01 h 0.34 l 0.33,0.01 0.33,0.01 h 0.33 l 0.34,0.01 0.33,0.01 h 0.33 l 0.33,0.01 0.34,0.01 h 0.33 l 0.33,0.01 0.33,0.01 h 0.34 l 0.33,0.01 0.33,0.01 h 0.33 l 0.34,0.01 0.33,0.01 0.33,0.01 h 0.33 l 0.34,0.01 0.33,0.01 0.33,0.01 h 0.33 l 0.34,0.01 0.33,0.01 0.33,0.01 0.33,0.01 h 0.34 l 0.33,0.01 0.33,0.01 0.33,0.01 0.34,0.01 0.33,0.01 0.33,0.01 h 0.33 l 0.34,0.01 0.33,0.01 0.33,0.01 0.33,0.01 0.34,0.01 0.33,0.01 0.33,0.01 0.33,0.01 0.34,0.01 0.33,0.01 0.33,0.01 0.33,0.01 0.34,0.01 0.33,0.01 0.33,0.01 0.33,0.02 0.34,0.01 0.33,0.01 0.33,0.01 0.33,0.01 0.34,0.01 0.33,0.01 0.33,0.02 0.33,0.01 0.34,0.01 0.33,0.01 0.33,0.02 0.34,0.01 0.33,0.01 0.33,0.02 0.33,0.01 0.34,0.01 0.33,0.02 0.33,0.01 0.33,0.02 0.34,0.01 0.33,0.02 0.33,0.01 0.33,0.02 0.34,0.01 0.33,0.02 0.33,0.01 0.33,0.02 0.34,0.01 0.33,0.02 0.33,0.02 0.33,0.01 0.34,0.02 0.33,0.02 0.33,0.02 0.33,0.01 0.34,0.02 0.33,0.02 0.33,0.02 0.33,0.02 0.34,0.02 0.33,0.02 0.33,0.02 0.33,0.02 0.34,0.02 0.33,0.02 0.33,0.02 0.33,0.02 0.34,0.02 0.33,0.03 0.33,0.02 0.33,0.02 0.34,0.02 0.33,0.03 0.33,0.02 0.33,0.02 0.34,0.03 0.33,0.02 0.33,0.03 0.33,0.02 0.34,0.03 0.33,0.03 0.33,0.02 0.33,0.03 0.34,0.03 0.33,0.02 0.33,0.03 0.33,0.03 0.34,0.03 0.33,0.03 0.33,0.03 0.33,0.03 0.34,0.03 0.33,0.03 0.33,0.03 0.33,0.03 0.34,0.04 0.33,0.03 0.33,0.03 0.33,0.04 0.34,0.03 0.33,0.04 0.33,0.03 0.33,0.04 0.34,0.03 0.33,0.04 0.33,0.04 0.33,0.04 0.34,0.04 0.33,0.04 0.33,0.04 0.33,0.04 0.34,0.04 0.33,0.04 0.33,0.04 0.33,0.04 0.34,0.05 0.33,0.04 0.33,0.05 0.33,0.04 0.34,0.05 0.33,0.05 0.33,0.04 0.33,0.05 0.34,0.05 0.33,0.05 0.33,0.05 0.33,0.05 0.34,0.05 0.33,0.06 0.33,0.05 0.33,0.05 0.34,0.06 0.33,0.05 0.33,0.06 0.33,0.06 0.34,0.06 0.33,0.06 0.33,0.06 0.33,0.06 0.34,0.06 0.33,0.06 0.33,0.06 0.33,0.07 0.34,0.06 0.33,0.07 0.33,0.07 0.33,0.07 0.34,0.07 0.33,0.07 0.33,0.07 0.33,0.07 0.34,0.07 0.33,0.08 0.33,0.07 0.34,0.08 0.33,0.08 0.33,0.08 0.33,0.08 0.34,0.08 0.33,0.08 0.33,0.08 0.33,0.09 0.34,0.09 0.33,0.08 0.33,0.09 0.33,0.09 0.34,0.09 0.33,0.09 0.33,0.1 0.33,0.09 0.34,0.1 0.33,0.1 0.33,0.1 0.33,0.1 0.34,0.1 0.33,0.1 0.33,0.11 0.33,0.1 0.34,0.11 0.33,0.11 0.33,0.11 0.33,0.12 0.34,0.11 0.33,0.12 0.33,0.11 0.33,0.12 0.34,0.12 0.33,0.13 0.33,0.12 0.33,0.13 0.34,0.12 0.33,0.13 0.33,0.14 0.33,0.13 0.34,0.13 0.33,0.14 0.33,0.14 0.33,0.14 0.34,0.14 0.33,0.15 0.33,0.15 0.33,0.15 0.34,0.15 0.33,0.15 0.33,0.16 0.33,0.15 0.34,0.16 0.33,0.16 0.33,0.17 0.33,0.16 0.34,0.17 0.33,0.17 0.33,0.18 0.33,0.17 0.34,0.18 0.33,0.18 0.33,0.18 0.33,0.19 0.34,0.19 0.33,0.19 0.33,0.19 0.33,0.2 0.34,0.2 0.33,0.2 0.33,0.2 0.33,0.21 0.34,0.21 0.33,0.21 0.33,0.21 0.33,0.22 0.34,0.22 0.33,0.22 0.33,0.23 0.33,0.23 0.34,0.23 0.33,0.24 0.33,0.24 0.33,0.24 0.34,0.24 0.33,0.25 0.33,0.25 0.33,0.26 0.34,0.26 0.33,0.26 0.33,0.26 0.33,0.27 0.34,0.27 0.33,0.28 0.33,0.27 0.33,0.29 0.34,0.28 0.33,0.29 0.33,0.3 0.33,0.29 0.34,0.3 0.33,0.31 0.33,0.3 0.33,0.32 0.34,0.31 0.33,0.32 0.33,0.33 0.33,0.32 0.34,0.33 0.33,0.34 0.33,0.34 0.33,0.34 0.34,0.35 0.33,0.35 0.33,0.36 0.33,0.36 0.34,0.37 0.33,0.37 0.33,0.37 0.33,0.38 0.34,0.38 0.33,0.39 0.33,0.39 0.33,0.4 0.34,0.4 0.33,0.4 0.33,0.41 0.34,0.42 0.33,0.42 0.33,0.42 0.33,0.43 0.34,0.44 0.33,0.44 0.33,0.44 0.33,0.45 0.34,0.45 0.33,0.46 0.33,0.47 0.33,0.47 0.34,0.47 0.33,0.48 0.33,0.48 0.33,0.49 0.34,0.5 0.33,0.5 0.33,0.51 0.33,0.51 0.34,0.51 0.33,0.52 0.33,0.53 0.33,0.53 0.34,0.54 0.33,0.54 0.33,0.55 0.33,0.56 0.34,0.55 0.33,0.57 0.33,0.57 0.33,0.58 0.34,0.58 0.33,0.59 0.33,0.59 0.33,0.6 0.34,0.6 0.33,0.61 0.33,0.62 0.33,0.62 0.34,0.62 0.33,0.64 0.33,0.63 0.33,0.65 0.34,0.65 0.33,0.65 0.33,0.66 0.33,0.67 0.34,0.67 0.33,0.68 0.33,0.68 0.33,0.69 0.34,0.69 0.33,0.7 0.33,0.71 0.33,0.71 0.34,0.72 0.33,0.72 0.33,0.73 0.33,0.73 0.34,0.74 0.33,0.75 0.33,0.75 0.33,0.75 0.34,0.76 0.33,0.77 0.33,0.77 0.33,0.78 0.34,0.78 0.33,0.79 0.33,0.79 0.33,0.8 0.34,0.8 0.33,0.81 0.33,0.82 0.33,0.82 0.34,0.82 0.33,0.83 0.33,0.83 0.33,0.84 0.34,0.84 0.33,0.85 0.33,0.85 0.33,0.86 0.34,0.86 0.33,0.87 0.33,0.87 0.33,0.87 0.34,0.88 0.33,0.89 0.33,0.88 0.33,0.9 0.34,0.89 0.33,0.9 0.33,0.9 0.33,0.91 0.34,0.91 0.33,0.92 0.33,0.92 0.33,0.92 0.34,0.92 0.33,0.93 0.33,0.93 0.33,0.94 0.34,0.94 0.33,0.94 0.33,0.94 0.33,0.95 0.34,0.95 0.33,0.95 0.33,0.95 0.33,0.96 0.34,0.96 0.33,0.96 0.33,0.96 0.33,0.97 0.34,0.96 0.33,0.97 0.33,0.97 0.33,0.97 0.34,0.98 0.33,0.97 0.33,0.98 0.34,0.98 0.33,0.97 0.33,0.98 0.33,0.98 0.34,0.98 0.33,0.98 0.33,0.99 0.33,0.98 0.34,0.98 0.33,0.98 0.33,0.98 0.33,0.99 0.34,0.98 0.33,0.98 0.33,0.98 0.33,0.98 0.34,0.98 0.33,0.98 0.33,0.98 0.33,0.98 0.34,0.98 0.33,0.97 0.33,0.97 0.33,0.98 0.34,0.97 0.33,0.97 0.33,0.97 0.33,0.96 0.34,0.97 0.33,0.96 0.33,0.96 0.33,0.96 0.34,0.95 0.33,0.96 0.33,0.95 0.33,0.94 0.34,0.95 0.33,0.94 0.33,0.94 0.33,0.94 0.34,0.93 0.33,0.93 0.33,0.93 0.33,0.92 0.34,0.92 0.33,0.92 0.33,0.91 0.33,0.91 0.34,0.91 0.33,0.9 0.33,0.9 0.33,0.89 0.34,0.89 0.33,0.89 0.33,0.88 0.33,0.88 0.34,0.87 0.33,0.87 0.33,0.87 0.33,0.86 0.34,0.85 0.33,0.85 0.33,0.85 0.33,0.84 0.34,0.83 0.33,0.84 0.33,0.82 0.33,0.82 0.34,0.82 0.33,0.81 0.33,0.81 0.33,0.8 0.34,0.8 0.33,0.79 0.33,0.78 0.33,0.78 0.34,0.78 0.33,0.77 0.33,0.76 0.33,0.76 0.34,0.75 0.33,0.75 0.33,0.74 0.33,0.74 0.34,0.73 0.33,0.73 0.33,0.72 0.33,0.71 0.34,0.71 0.33,0.71 0.33,0.69 0.33,0.7 0.34,0.68 0.33,0.68 0.33,0.68 0.33,0.67 0.34,0.66 0.33,0.66 0.33,0.65 0.33,0.65 0.34,0.64 0.33,0.64 0.33,0.63 0.33,0.62 0.34,0.62 0.33,0.61 0.33,0.61 0.33,0.6 0.34,0.6 0.33,0.59 0.33,0.58 0.33,0.58 0.34,0.58 0.33,0.56 0.33,0.57 0.33,0.55 0.34,0.55 0.33,0.55 0.33,0.54 0.33,0.54 0.34,0.53 0.33,0.52 0.33,0.52 0.34,0.51 0.33,0.51 0.33,0.51 0.33,0.49 0.34,0.5 0.33,0.48 0.33,0.49 0.33,0.47 0.34,0.48 0.33,0.46 0.33,0.47 0.33,0.45 0.34,0.45 0.33,0.45 0.33,0.44 0.33,0.44 0.34,0.43 0.33,0.43 0.33,0.42 0.33,0.42 0.34,0.41 0.33,0.41 0.33,0.41 0.33,0.4 0.34,0.39 0.33,0.39 0.33,0.39 0.33,0.38 0.34,0.37 0.33,0.38 0.33,0.36 0.33,0.37 0.34,0.36 0.33,0.35 0.33,0.35 0.33,0.35 0.34,0.34 0.33,0.34 0.33,0.33 0.33,0.33 0.34,0.33 0.33,0.32 0.33,0.32 0.33,0.31 0.34,0.31 0.33,0.31 0.33,0.3 0.33,0.3 0.34,0.29 0.33,0.3 0.33,0.28 0.33,0.29 0.34,0.28 0.33,0.28 0.33,0.27 0.33,0.27 0.34,0.27 0.33,0.26 0.33,0.26 0.33,0.26 0.34,0.25 0.33,0.25 0.33,0.25 0.33,0.24 0.34,0.24 0.33,0.24 0.33,0.23 0.33,0.23 0.34,0.23 0.33,0.23 0.33,0.22 0.33,0.22 0.34,0.21 0.33,0.22 0.33,0.21 0.33,0.21 0.34,0.2 0.33,0.2 0.33,0.2 0.33,0.2 0.34,0.2 0.33,0.19 0.33,0.19 0.33,0.18 0.34,0.19 0.33,0.18 0.33,0.18 0.33,0.18 0.34,0.17 0.33,0.17 0.33,0.17 0.33,0.17 0.34,0.17 0.33,0.16 0.33,0.16 0.33,0.16 0.34,0.16 0.33,0.15 0.33,0.15 0.33,0.15 0.34,0.15 0.33,0.15 0.33,0.14 0.33,0.14 0.34,0.14 0.33,0.14 0.33,0.14 0.33,0.13 0.34,0.13 0.33,0.14 0.33,0.12 0.33,0.13 0.34,0.13 0.33,0.12 0.33,0.12 0.33,0.12 0.34,0.12 0.33,0.12 0.33,0.11 0.33,0.12 0.34,0.11 0.33,0.11 0.33,0.11 0.33,0.11 0.34,0.1 0.33,0.11 0.33,0.1 0.34,0.1 0.33,0.1 0.33,0.1 0.33,0.1 0.34,0.09 0.33,0.1 0.33,0.09 0.33,0.09 0.34,0.09 0.33,0.09 0.33,0.09 0.33,0.09 0.34,0.08 0.33,0.08 0.33,0.09 0.33,0.08 0.34,0.08 0.33,0.08 0.33,0.08 0.33,0.08 0.34,0.07 0.33,0.08 0.33,0.07 0.33,0.07 0.34,0.08 0.33,0.07 0.33,0.07 0.33,0.07 0.34,0.06 0.33,0.07 0.33,0.07 0.33,0.06 0.34,0.07 0.33,0.06 0.33,0.06 0.33,0.06 0.34,0.06 0.33,0.06 0.33,0.06 0.33,0.06 0.34,0.06 0.33,0.05 0.33,0.06 0.33,0.05 0.34,0.06 0.33,0.05 0.33,0.05 0.33,0.05 0.34,0.05 0.33,0.05 0.33,0.05 0.33,0.05 0.34,0.05 0.33,0.05 0.33,0.04 0.33,0.05 0.34,0.04 0.33,0.05 0.33,0.04 0.33,0.04 0.34,0.05 0.33,0.04 0.33,0.04 0.33,0.04 0.34,0.04 0.33,0.04 0.33,0.04 0.33,0.04 0.34,0.04 0.33,0.03 0.33,0.04 0.33,0.04 0.34,0.03 0.33,0.04 0.33,0.03 0.33,0.04 0.34,0.03 0.33,0.03 0.33,0.04 0.33,0.03 0.34,0.03 0.33,0.03 0.33,0.03 0.33,0.03 0.34,0.03 0.33,0.03 0.33,0.03 0.33,0.03 0.34,0.03 0.33,0.02 0.33,0.03 0.33,0.03 0.34,0.03 0.33,0.02 0.33,0.03 0.33,0.02 0.34,0.03 0.33,0.02 0.33,0.03 0.33,0.02 0.34,0.02 0.33,0.03 0.33,0.02 0.33,0.02 0.34,0.03 0.33,0.02 0.33,0.02 0.33,0.02 0.34,0.02 0.33,0.02 0.33,0.02 0.33,0.02 0.34,0.02 0.33,0.02 0.33,0.02 0.33,0.02 0.34,0.02 0.33,0.02 0.33,0.01 0.33,0.02 0.34,0.02 0.33,0.02 0.33,0.01 0.33,0.02 0.34,0.02 0.33,0.01 0.33,0.02 0.34,0.02 0.33,0.01 0.33,0.02 0.33,0.01 0.34,0.02 0.33,0.01 0.33,0.02 0.33,0.01 0.34,0.01 0.33,0.02 0.33,0.01 0.33,0.01 0.34,0.02 0.33,0.01 0.33,0.01 0.33,0.02 0.34,0.01 0.33,0.01 0.33,0.01 0.33,0.01 0.34,0.02 0.33,0.01 0.33,0.01 0.33,0.01 0.34,0.01 0.33,0.01 0.33,0.01 0.33,0.01 0.34,0.01 0.33,0.01 0.33,0.01 0.33,0.01 0.34,0.01 0.33,0.01 0.33,0.01 0.33,0.01 0.34,0.01 0.33,0.01 0.33,0.01 0.33,0.01 0.34,0.01 0.33,0.01 0.33,0.01 h 0.33 l 0.34,0.01 0.33,0.01 0.33,0.01 0.33,0.01 h 0.34 l 0.33,0.01 0.33,0.01 0.33,0.01 h 0.34 l 0.33,0.01 0.33,0.01 h 0.33 l 0.34,0.01 0.33,0.01 h 0.33 l 0.33,0.01 0.34,0.01 h 0.33 l 0.33,0.01 0.33,0.01 h 0.34 l 0.33,0.01 h 0.33 l 0.33,0.01 0.34,0.01 h 0.33 l 0.33,0.01 h 0.33 l 0.34,0.01 h 0.33 l 0.33,0.01 h 0.33 l 0.34,0.01 h 0.33 l 0.33,0.01 h 0.33 l 0.34,0.01 h 0.33 l 0.33,0.01 h 0.33 l 0.34,0.01 h 0.33 l 0.33,0.01 h 0.33 0.34 l 0.33,0.01 h 0.33 l 0.33,0.01 h 0.34 0.33 l 0.33,0.01 h 0.33 l 0.34,0.01 h 0.33 0.33 l 0.33,0.01 h 0.34 0.33 l 0.33,0.01 h 0.33 0.34 l 0.33,0.01 h 0.33 0.33 l 0.34,0.01 h 0.33 0.33 l 0.33,0.01 h 0.34 0.33 0.33 l 0.33,0.01 h 0.34 0.33 l 0.33,0.01 h 0.33 0.34 0.33"
         style="fill:none;stroke:#000000;stroke-width:2.25;stroke-linecap:round;stroke-linejoin:round;stroke-miterlimit:10;stroke-dasharray:none;stroke-opacity:1"
         id="path16167" /><path
         d="m 174.6,127.26 v 68.11"
         style="fill:none;stroke:#000000;stroke-width:1.13;stroke-linecap:round;stroke-linejoin:round;stroke-miterlimit:10;stroke-dasharray:none;stroke-opacity:1"
         id="path16169" /><path
         d="m 177.48,190.38 -2.88,4.99 -2.88,-4.99"
         style="fill:none;stroke:#000000;stroke-width:1.13;stroke-linecap:round;stroke-linejoin:round;stroke-miterlimit:10;stroke-dasharray:none;stroke-opacity:1"
         id="path16171" /><text
         xml:space="preserve"
         transform="matrix(1,0,0,-1,165.1,149.11)"
         style="font-variant:normal;font-weight:normal;font-size:18px;font-family:Symbol;-inkscape-font-specification:Symbol;writing-mode:lr-tb;fill:#000000;fill-opacity:1;fill-rule:nonzero;stroke:none"
         id="text16175"><tspan
           x="0"
           y="0"
           id="tspan16173">ε</tspan></text><text
         xml:space="preserve"
         transform="matrix(1,0,0,-1,182.32,175.98)"
         style="font-variant:normal;font-weight:normal;font-size:18px;font-family:Symbol;-inkscape-font-specification:Symbol;writing-mode:lr-tb;fill:#000000;fill-opacity:1;fill-rule:nonzero;stroke:none"
         id="text16179"><tspan
           x="0"
           y="0"
           id="tspan16177">∆</tspan></text><text
         xml:space="preserve"
         transform="matrix(1,0,0,-1,193.34,175.98)"
         style="font-variant:normal;font-weight:normal;font-size:18px;font-family:Helvetica;-inkscape-font-specification:Helvetica;writing-mode:lr-tb;fill:#000000;fill-opacity:1;fill-rule:nonzero;stroke:none"
         id="text16183"><tspan
           x="0"
           y="0"
           id="tspan16181">J</tspan></text><text
         xml:space="preserve"
         transform="matrix(1,0,0,-1,229.57,143)"
         style="font-variant:normal;font-weight:normal;font-size:18px;font-family:Helvetica;-inkscape-font-specification:Helvetica;writing-mode:lr-tb;fill:#000000;fill-opacity:1;fill-rule:nonzero;stroke:none"
         id="text16187"><tspan
           x="0 12.006 17.01 27.018 32.021999 42.029999 47.034 56.034 66.042 76.050003 85.050003 89.045998 94.050003 98.045998 107.046 111.042 116.046"
           y="0"
           id="tspan16185">State sensitivity</tspan></text><text
         xml:space="preserve"
         transform="matrix(1,0,0,-1,244.52,115.21)"
         style="font-variant:normal;font-weight:normal;font-size:18px;font-family:Symbol;-inkscape-font-specification:Symbol;writing-mode:lr-tb;fill:#000000;fill-opacity:1;fill-rule:nonzero;stroke:none"
         id="text16191"><tspan
           x="0"
           y="0"
           id="tspan16189">λ</tspan></text><text
         xml:space="preserve"
         transform="matrix(1,0,0,-1,254.4,115.21)"
         style="font-variant:normal;font-weight:normal;font-size:23px;font-family:Symbol;-inkscape-font-specification:Symbol;writing-mode:lr-tb;fill:#000000;fill-opacity:1;fill-rule:nonzero;stroke:none"
         id="text16195"><tspan
           x="0"
           y="0"
           id="tspan16193">(</tspan></text><text
         xml:space="preserve"
         transform="matrix(1,0,0,-1,262.06,115.21)"
         style="font-variant:normal;font-weight:normal;font-size:18px;font-family:Helvetica;-inkscape-font-specification:Helvetica;writing-mode:lr-tb;fill:#000000;fill-opacity:1;fill-rule:nonzero;stroke:none"
         id="text16199"><tspan
           x="0 5.0040002"
           y="0"
           id="tspan16197">t'</tspan></text><text
         xml:space="preserve"
         transform="matrix(1,0,0,-1,271.06,115.21)"
         style="font-variant:normal;font-weight:normal;font-size:23px;font-family:Symbol;-inkscape-font-specification:Symbol;writing-mode:lr-tb;fill:#000000;fill-opacity:1;fill-rule:nonzero;stroke:none"
         id="text16203"><tspan
           x="0"
           y="0"
           id="tspan16201">)</tspan></text><text
         xml:space="preserve"
         transform="matrix(1,0,0,-1,282.89,115.21)"
         style="font-variant:normal;font-weight:normal;font-size:18px;font-family:Symbol;-inkscape-font-specification:Symbol;writing-mode:lr-tb;fill:#000000;fill-opacity:1;fill-rule:nonzero;stroke:none"
         id="text16207"><tspan
           x="0"
           y="0"
           id="tspan16205">≡</tspan></text><text
         xml:space="preserve"
         transform="matrix(1,0,0,-1,298.32,115.21)"
         style="font-variant:normal;font-weight:normal;font-size:18px;font-family:Helvetica;-inkscape-font-specification:Helvetica;writing-mode:lr-tb;fill:#000000;fill-opacity:1;fill-rule:nonzero;stroke:none"
         id="text16211"><tspan
           x="0 3.9960001 7.9920001"
           y="0"
           id="tspan16209">lim</tspan></text><text
         xml:space="preserve"
         transform="matrix(1,0,0,-1,296.93,104.14)"
         style="font-variant:normal;font-weight:normal;font-size:13px;font-family:Symbol;-inkscape-font-specification:Symbol;writing-mode:lr-tb;fill:#000000;fill-opacity:1;fill-rule:nonzero;stroke:none"
         id="text16215"><tspan
           x="0"
           y="0"
           id="tspan16213">ε</tspan></text><text
         xml:space="preserve"
         transform="matrix(1,0,0,-1,302.64,104.14)"
         style="font-variant:normal;font-weight:normal;font-size:13px;font-family:Symbol;-inkscape-font-specification:Symbol;writing-mode:lr-tb;fill:#000000;fill-opacity:1;fill-rule:nonzero;stroke:none"
         id="text16219"><tspan
           x="0"
           y="0"
           id="tspan16217">→</tspan></text><text
         xml:space="preserve"
         transform="matrix(1,0,0,-1,315.47,104.14)"
         style="font-variant:normal;font-weight:normal;font-size:13px;font-family:Helvetica;-inkscape-font-specification:Helvetica;writing-mode:lr-tb;fill:#000000;fill-opacity:1;fill-rule:nonzero;stroke:none"
         id="text16223"><tspan
           x="0"
           y="0"
           id="tspan16221">0</tspan></text><text
         xml:space="preserve"
         transform="matrix(1,0,0,-1,325.2,122.47)"
         style="font-variant:normal;font-weight:normal;font-size:13px;font-family:Symbol;-inkscape-font-specification:Symbol;writing-mode:lr-tb;fill:#000000;fill-opacity:1;fill-rule:nonzero;stroke:none"
         id="text16227"><tspan
           x="0"
           y="0"
           id="tspan16225">∆</tspan></text><text
         xml:space="preserve"
         transform="matrix(1,0,0,-1,333.15,122.47)"
         style="font-variant:normal;font-weight:normal;font-size:13px;font-family:Helvetica;-inkscape-font-specification:Helvetica;writing-mode:lr-tb;fill:#000000;fill-opacity:1;fill-rule:nonzero;stroke:none"
         id="text16231"><tspan
           x="0"
           y="0"
           id="tspan16229">J</tspan></text><text
         xml:space="preserve"
         transform="matrix(1,0,0,-1,329.57,108.19)"
         style="font-variant:normal;font-weight:normal;font-size:13px;font-family:Symbol;-inkscape-font-specification:Symbol;writing-mode:lr-tb;fill:#000000;fill-opacity:1;fill-rule:nonzero;stroke:none"
         id="text16235"><tspan
           x="0"
           y="0"
           id="tspan16233">ε</tspan></text><path
         d="m 325.2,119.76 h 14.45"
         style="fill:none;stroke:#000000;stroke-width:0.75;stroke-linecap:round;stroke-linejoin:round;stroke-miterlimit:10;stroke-dasharray:none;stroke-opacity:1"
         id="path16237" /><path
         d="M 181.25,66.24 V 195.37"
         style="fill:none;stroke:#000000;stroke-width:0.75;stroke-linecap:round;stroke-linejoin:round;stroke-miterlimit:10;stroke-dasharray:2.25, 3.75;stroke-dashoffset:0;stroke-opacity:1"
         id="path16239" /></g></g><g
     id="g16241"
     transform="matrix(0.35277776,0,0,-0.35277778,-5.0620427e-6,150.28334)"><g
       id="g16243"
       clip-path="url(#clipPath16247)"><path
         d="m 477.24,137.18 0.33,0.08 0.34,0.08 0.33,0.08 0.33,0.08 0.33,0.09 0.34,0.08 0.33,0.09 0.33,0.09 0.33,0.09 0.34,0.09 0.33,0.1 0.33,0.09 0.33,0.1 0.34,0.09 0.33,0.1 0.33,0.1 0.33,0.1 0.34,0.11 0.33,0.1 0.33,0.11 0.33,0.11 0.34,0.11 0.33,0.11 0.33,0.11 0.33,0.11 0.34,0.12 0.33,0.12 0.33,0.12 0.33,0.12 0.34,0.12 0.33,0.12 0.33,0.13 0.33,0.13 0.34,0.13 0.33,0.13 0.33,0.14 0.33,0.13 0.34,0.14 0.33,0.14 0.33,0.14 0.33,0.15 0.34,0.14 0.33,0.15 0.33,0.15 0.33,0.15 0.34,0.16 0.33,0.15 0.33,0.16 0.33,0.16 0.34,0.17 0.33,0.16 0.33,0.17 0.33,0.17 0.34,0.18 0.33,0.17 0.33,0.18 0.33,0.18 0.34,0.19 0.33,0.18 0.33,0.19 0.33,0.19 0.34,0.2 0.33,0.19 0.33,0.2 0.33,0.2 0.34,0.21 0.33,0.21 0.33,0.21 0.33,0.21 0.34,0.22 0.33,0.22 0.33,0.22 0.33,0.23 0.34,0.23 0.33,0.23 0.33,0.24 0.33,0.24 0.34,0.24 0.33,0.24 0.33,0.25 0.33,0.26 0.34,0.25 0.33,0.26 0.33,0.27 0.33,0.26 0.34,0.27 0.33,0.28 0.33,0.27 0.33,0.29 0.34,0.28 0.33,0.29 0.33,0.29 0.33,0.3 0.34,0.3 0.33,0.31 0.33,0.31 0.33,0.31 0.34,0.32 0.33,0.32 0.33,0.33 0.33,0.33 0.34,0.33 0.33,0.34 0.33,0.35 0.33,0.34 0.34,0.36 0.33,0.36 0.33,0.36 0.33,0.37 0.34,0.37 0.33,0.37 0.33,0.39 0.33,0.38 0.34,0.39 0.33,0.4 0.33,0.4 0.33,0.41 0.34,0.41 0.33,0.42 0.33,0.42 0.33,0.43 0.34,0.43 0.33,0.44 0.33,0.45 0.33,0.45 0.34,0.45 0.33,0.46 0.33,0.47 0.34,0.47 0.33,0.48 0.33,0.49 0.33,0.49 0.34,0.5 0.33,0.5 0.33,0.51 0.33,0.51 0.34,0.52 0.33,0.53 0.33,0.53 0.33,0.54 0.34,0.55 0.33,0.55 0.33,0.56 0.33,0.57 0.34,0.57 0.33,0.58 0.33,0.59 0.33,0.59 0.34,0.6 0.33,0.6 0.33,0.62 0.33,0.62 0.34,0.62 0.33,0.64 0.33,0.64 0.33,0.65 0.34,0.65 0.33,0.66 0.33,0.67 0.33,0.68 0.34,0.68 0.33,0.7 0.33,0.69 0.33,0.71 0.34,0.71 0.33,0.72 0.33,0.73 0.33,0.74 0.34,0.74 0.33,0.75 0.33,0.76 0.33,0.77 0.34,0.77 0.33,0.78 0.33,0.79 0.33,0.8 0.34,0.8 0.33,0.81 0.33,0.82 0.33,0.83 0.34,0.83 0.33,0.85 0.33,0.85 0.33,0.85 0.34,0.87 0.33,0.87 0.33,0.88 0.33,0.89 0.34,0.9 0.33,0.9 0.33,0.91 0.33,0.92 0.34,0.93 0.33,0.93 0.33,0.94 0.33,0.95 0.34,0.96 0.33,0.96 0.33,0.97 0.33,0.98 0.34,0.98 0.33,0.99 0.33,1 0.33,1.01 0.34,1.01 0.33,1.02 0.33,1.03 0.33,1.03 0.34,1.04 0.33,1.04 0.33,1.06 0.33,1.05 0.34,1.07 0.33,1.07 0.33,1.08 0.33,1.08 0.34,1.09 0.33,1.09 0.33,1.1 0.33,1.11 0.34,1.11 0.33,1.11 0.33,1.12 0.33,1.13 0.34,1.12 0.33,1.14 0.33,1.14 0.33,1.14 0.34,1.14 0.33,1.15 0.33,1.16 0.33,1.15 0.34,1.16 0.33,1.17 0.33,1.16 0.33,1.17 0.34,1.17 0.33,1.17 0.33,1.18 0.33,1.17 0.34,1.18 0.33,1.18 0.33,1.18 0.33,1.18 0.34,1.18 0.33,1.18 0.33,1.18 0.33,1.18 0.34,1.18 0.33,1.18 0.33,1.17 0.34,1.18 0.33,1.17 0.33,1.18 0.33,1.17 0.34,1.16 0.33,1.17 0.33,1.16 0.33,1.15 0.34,1.16 0.33,1.14 0.33,1.15 0.33,1.14 0.34,1.13 0.33,1.13 0.33,1.12 0.33,1.12 0.34,1.11 0.33,1.1 0.33,1.09 0.33,1.09 0.34,1.08 0.33,1.07 0.33,1.06 0.33,1.06 0.34,1.04 0.33,1.03 0.33,1.03 0.33,1.01 0.34,1 0.33,1 0.33,0.98 0.33,0.96 0.34,0.96 0.33,0.94 0.33,0.93 0.33,0.92 0.34,0.9 0.33,0.89 0.33,0.88 0.33,0.86 0.34,0.85 0.33,0.83 0.33,0.81 0.33,0.8 0.34,0.78 0.33,0.77 0.33,0.75 0.33,0.73 0.34,0.72 0.33,0.69 0.33,0.68 0.33,0.66 0.34,0.65 0.33,0.62 0.33,0.6 0.33,0.59 0.34,0.57 0.33,0.54 0.33,0.53 0.33,0.5 0.34,0.49 0.33,0.46 0.33,0.44 0.33,0.43 0.34,0.4 0.33,0.37 0.33,0.36 0.33,0.34 0.34,0.31 0.33,0.29 0.33,0.27 0.33,0.25 0.34,0.22 0.33,0.21 0.33,0.18 0.33,0.15 0.34,0.14 0.33,0.11 0.33,0.08 0.33,0.07 0.34,0.04 0.33,0.02 h 0.33 l 0.33,-0.03 0.34,-0.05 0.33,-0.07 0.33,-0.1 0.33,-0.12 0.34,-0.14 0.33,-0.16 0.33,-0.19 0.33,-0.21 0.34,-0.23 0.33,-0.26 0.33,-0.27 0.33,-0.3 0.34,-0.32 0.33,-0.35 0.33,-0.36 0.33,-0.39 0.34,-0.4 0.33,-0.43 0.33,-0.45 0.33,-0.47 0.34,-0.5 0.33,-0.51 0.33,-0.53 0.33,-0.55 0.34,-0.58 0.33,-0.59 0.33,-0.61 0.33,-0.63 0.34,-0.65 0.33,-0.66 0.33,-0.69 0.33,-0.7 0.34,-0.72 0.33,-0.74 0.33,-0.76 0.33,-0.77 0.34,-0.79 0.33,-0.8 0.33,-0.82 0.33,-0.84 0.34,-0.85 0.33,-0.86 0.33,-0.88 0.34,-0.9 0.33,-0.91 0.33,-0.92 0.33,-0.93 0.34,-0.95 0.33,-0.96 0.33,-0.97 0.33,-0.99 0.34,-0.99 0.33,-1.01 0.33,-1.02 0.33,-1.02 0.34,-1.04 0.33,-1.05 0.33,-1.06 0.33,-1.06 0.34,-1.07 0.33,-1.09 0.33,-1.09 0.33,-1.09 0.34,-1.11 0.33,-1.11 0.33,-1.12 0.33,-1.12 0.34,-1.13 0.33,-1.14 0.33,-1.14 0.33,-1.14 0.34,-1.15 0.33,-1.16 0.33,-1.16 0.33,-1.16 0.34,-1.16 0.33,-1.17 0.33,-1.17 0.33,-1.17 0.34,-1.18 0.33,-1.17 0.33,-1.18 0.33,-1.18 0.34,-1.18 0.33,-1.18 0.33,-1.18 0.33,-1.18 0.34,-1.18 0.33,-1.18 0.33,-1.18 0.33,-1.18 0.34,-1.18 0.33,-1.17 0.33,-1.18 0.33,-1.17 0.34,-1.17 0.33,-1.16 0.33,-1.17 0.33,-1.16 0.34,-1.16 0.33,-1.15 0.33,-1.16 0.33,-1.15 0.34,-1.14 0.33,-1.14 0.33,-1.14 0.33,-1.13 0.34,-1.13 0.33,-1.12 0.33,-1.12 0.33,-1.11 0.34,-1.11 0.33,-1.1 0.33,-1.1 0.33,-1.09 0.34,-1.09 0.33,-1.08 0.33,-1.08 0.33,-1.06 0.34,-1.07 0.33,-1.05 0.33,-1.05 0.33,-1.05 0.34,-1.04 0.33,-1.03 0.33,-1.02 0.33,-1.02 0.34,-1.01 0.33,-1 0.33,-1 0.33,-0.99 0.34,-0.98 0.33,-0.97 0.33,-0.97 0.33,-0.96 0.34,-0.96 0.33,-0.94 0.33,-0.94 0.33,-0.93 0.34,-0.93 0.33,-0.91 0.33,-0.91 0.33,-0.9 0.34,-0.89 0.33,-0.89 0.33,-0.88 0.33,-0.87 0.34,-0.86 0.33,-0.86 0.33,-0.84 0.33,-0.84 0.34,-0.84 0.33,-0.82 0.33,-0.82 0.33,-0.81 0.34,-0.8 0.33,-0.79 0.33,-0.79 0.33,-0.78 0.34,-0.77 0.33,-0.76 0.33,-0.76 0.33,-0.75 0.34,-0.74 0.33,-0.73 0.33,-0.73 0.34,-0.72 0.33,-0.71 0.33,-0.7 0.33,-0.7 0.34,-0.69 0.33,-0.68 0.33,-0.67 0.33,-0.67 0.34,-0.66 0.33,-0.65 0.33,-0.65 0.33,-0.64 0.34,-0.63 0.33,-0.62 0.33,-0.62 0.33,-0.61 0.34,-0.61 0.33,-0.59 0.33,-0.59 0.33,-0.59 0.34,-0.57 0.33,-0.57 0.33,-0.57 0.33,-0.55 0.34,-0.56 0.33,-0.54 0.33,-0.54 0.33,-0.53 0.34,-0.52 0.33,-0.52 0.33,-0.52 0.33,-0.5 0.34,-0.5 0.33,-0.5 0.33,-0.49 0.33,-0.48 0.34,-0.48 0.33,-0.47 0.33,-0.46 0.33,-0.46 0.34,-0.46 0.33,-0.45 0.33,-0.44 0.33,-0.44 0.34,-0.43 0.33,-0.42 0.33,-0.43 0.33,-0.41 0.34,-0.41 0.33,-0.41 0.33,-0.4 0.33,-0.39 0.34,-0.39 0.33,-0.39 0.33,-0.38 0.33,-0.37 0.34,-0.37 0.33,-0.37 0.33,-0.36 0.33,-0.36 0.34,-0.35 0.33,-0.35 0.33,-0.34 0.33,-0.34 0.34,-0.33 0.33,-0.33 0.33,-0.32 0.33,-0.33 0.34,-0.31 0.33,-0.31 0.33,-0.31 0.33,-0.31 0.34,-0.3 0.33,-0.29 0.33,-0.3 0.33,-0.28 0.34,-0.29 0.33,-0.28 0.33,-0.28 0.33,-0.27 0.34,-0.27 0.33,-0.26 0.33,-0.27 0.33,-0.25 0.34,-0.26 0.33,-0.25 0.33,-0.25 0.33,-0.24 0.34,-0.25 0.33,-0.23 0.33,-0.24 0.33,-0.23 0.34,-0.23 0.33,-0.23 0.33,-0.22 0.33,-0.22 0.34,-0.21 0.33,-0.22 0.33,-0.21 0.33,-0.2 0.34,-0.21 0.33,-0.2 0.33,-0.2 0.33,-0.2 0.34,-0.19 0.33,-0.19 0.33,-0.19 0.33,-0.18 0.34,-0.19 0.33,-0.18 0.33,-0.17 0.33,-0.18 0.34,-0.17 0.33,-0.17 0.33,-0.17 0.33,-0.17 0.34,-0.16 0.33,-0.16 0.33,-0.16 0.33,-0.16 0.34,-0.15 0.33,-0.15 0.33,-0.15 0.34,-0.15 0.33,-0.15 0.33,-0.14 0.33,-0.14 0.34,-0.14 0.33,-0.14 0.33,-0.14 0.33,-0.13 0.34,-0.13 0.33,-0.13 0.33,-0.13 0.33,-0.13 0.34,-0.12 0.33,-0.12 0.33,-0.13 0.33,-0.12 0.34,-0.11 0.33,-0.12 0.33,-0.11 0.33,-0.12 0.34,-0.11 0.33,-0.11 0.33,-0.1 0.33,-0.11 0.34,-0.11 0.33,-0.1 0.33,-0.1 0.33,-0.1 0.34,-0.1 0.33,-0.1 0.33,-0.09 0.33,-0.1 0.34,-0.09 0.33,-0.09 0.33,-0.09 0.33,-0.09 0.34,-0.09 0.33,-0.09 0.33,-0.08 0.33,-0.09 0.34,-0.08 0.33,-0.08 0.33,-0.08 0.33,-0.08 0.34,-0.08 0.33,-0.08 0.33,-0.07 0.33,-0.08 0.34,-0.07 0.33,-0.08 0.33,-0.07 0.33,-0.07 0.34,-0.07 0.33,-0.07 0.33,-0.06 0.33,-0.07 0.34,-0.07 0.33,-0.06 0.33,-0.07 0.33,-0.06 0.34,-0.06 0.33,-0.06 0.33,-0.06 0.33,-0.06 0.34,-0.06 0.33,-0.06 0.33,-0.05 0.33,-0.06 0.34,-0.06 0.33,-0.05 0.33,-0.05 0.33,-0.06 0.34,-0.05 0.33,-0.05 0.33,-0.05 0.33,-0.05 0.34,-0.05 0.33,-0.05 0.33,-0.04 0.33,-0.05 0.34,-0.05 0.33,-0.04 0.33,-0.05 0.33,-0.04 0.34,-0.04 0.33,-0.05 0.33,-0.04 0.33,-0.04 0.34,-0.04 0.33,-0.04 0.33,-0.04 0.33,-0.04 0.34,-0.04 0.33,-0.04 0.33,-0.04 0.33,-0.03 0.34,-0.04 0.33,-0.04 0.33,-0.03 0.33,-0.04 0.34,-0.03 0.33,-0.03 0.33,-0.04 0.33,-0.03 0.34,-0.03 0.33,-0.03 0.33,-0.04 0.33,-0.03 0.34,-0.03 0.33,-0.03 0.33,-0.03 0.33,-0.03 0.34,-0.02 0.33,-0.03 0.33,-0.03 0.33,-0.03 0.34,-0.03 0.33,-0.02 0.33,-0.03 0.33,-0.02 0.34,-0.03 0.33,-0.03 0.33,-0.02 0.33,-0.02 0.34,-0.03 0.33,-0.02 0.33,-0.03 0.34,-0.02 0.33,-0.02 0.33,-0.02 0.33,-0.03 0.34,-0.02 0.33,-0.02 0.33,-0.02 0.33,-0.02 0.34,-0.02 0.33,-0.02 0.33,-0.02 0.33,-0.02 0.34,-0.02 0.33,-0.02 0.33,-0.02 0.33,-0.02 0.34,-0.01 0.33,-0.02 0.33,-0.02 0.33,-0.02 0.34,-0.01 0.33,-0.02 0.33,-0.02 0.33,-0.01 0.34,-0.02 0.33,-0.02 0.33,-0.01 0.33,-0.02 0.34,-0.01 0.33,-0.02 0.33,-0.01 0.33,-0.02 0.34,-0.01 0.33,-0.01 0.33,-0.02 0.33,-0.01 0.34,-0.01 0.33,-0.02 0.33,-0.01 0.33,-0.01 0.34,-0.02 0.33,-0.01 0.33,-0.01 0.33,-0.01 0.34,-0.02 0.33,-0.01 0.33,-0.01 0.33,-0.01 0.34,-0.01 0.33,-0.01 0.33,-0.01 0.33,-0.01 0.34,-0.02 0.33,-0.01 0.33,-0.01 0.33,-0.01 0.34,-0.01 0.33,-0.01 0.33,-0.01 0.33,-0.01 h 0.34 l 0.33,-0.01 0.33,-0.01 0.33,-0.01 0.34,-0.01 0.33,-0.01 0.33,-0.01 0.33,-0.01 0.34,-0.01 h 0.33 l 0.33,-0.01 0.33,-0.01 0.34,-0.01 0.33,-0.01 h 0.33 l 0.33,-0.01 0.34,-0.01 0.33,-0.01 h 0.33 l 0.33,-0.01 0.34,-0.01 h 0.33 l 0.33,-0.01 0.33,-0.01 h 0.34 l 0.33,-0.01 0.33,-0.01 h 0.33 l 0.34,-0.01 0.33,-0.01 h 0.33 l 0.33,-0.01 h 0.34 l 0.33,-0.01 0.33,-0.01 h 0.33 l 0.34,-0.01 h 0.33 l 0.33,-0.01 h 0.33 l 0.34,-0.01 h 0.33 l 0.33,-0.01 h 0.33 l 0.34,-0.01 h 0.33 l 0.33,-0.01 h 0.33 l 0.34,-0.01 h 0.33 l 0.33,-0.01 h 0.33 l 0.34,-0.01 h 0.33 0.33 l 0.33,-0.01 h 0.34 l 0.33,-0.01 h 0.33 0.33 l 0.34,-0.01 h 0.33 l 0.33,-0.01 h 0.33 0.34 l 0.33,-0.01 h 0.33 0.34 l 0.33,-0.01 h 0.33 l 0.33,-0.01 h 0.34 0.33 l 0.33,-0.01 h 0.33 0.34 0.33 l 0.33,-0.01 h 0.33 0.34 l 0.33,-0.01 h 0.33 0.33 l 0.34,-0.01 h 0.33 0.33 0.33 l 0.34,-0.01 h 0.33 0.33 l 0.33,-0.01 h 0.34 0.33 0.33 l 0.33,-0.01 h 0.34 0.33 0.33 l 0.33,-0.01 h 0.34 0.33 0.33 0.33 l 0.34,-0.01 h 0.33 0.33 0.33 l 0.34,-0.01 h 0.33 0.33 0.33 0.34 l 0.33,-0.01 h 0.33 0.33 0.34 0.33 l 0.33,-0.01 h 0.33 0.34 0.33 0.33 l 0.33,-0.01 h 0.34 0.33 0.33 0.33 0.34 l 0.33,-0.01 h 0.33 0.33 0.34 0.33 l 0.33,-0.01 h 0.33 0.34 0.33 0.33 0.33 l 0.34,-0.01 h 0.33 0.33 0.33 0.34 0.33 l 0.33,-0.01 h 0.33 0.34 0.33 0.33 0.33 0.34 l 0.33,-0.01 h 0.33 0.33 0.34 0.33 0.33 l 0.33,-0.01 h 0.34 0.33 0.33 0.33 0.34 0.33 l 0.33,-0.01 h 0.33 0.34 0.33 0.33 0.33 l 0.34,-0.01 h 0.33 0.33 0.33 0.34 0.33 l 0.33,-0.01 h 0.33 0.34 0.33 0.33 0.33 l 0.34,-0.01 h 0.33 0.33 0.33 0.34 0.33"
         style="fill:none;stroke:#000000;stroke-width:2.25;stroke-linecap:round;stroke-linejoin:round;stroke-miterlimit:10;stroke-dasharray:none;stroke-opacity:1"
         id="path16249" /></g></g><g
     id="g16251"
     transform="matrix(0.35277776,0,0,-0.35277778,-5.0620427e-6,150.28334)"><path
       d="M 477.24,66.24 H 809.76 V 366.96 H 477.24 Z"
       style="fill:none;stroke:#000000;stroke-width:0.75;stroke-linecap:round;stroke-linejoin:round;stroke-miterlimit:10;stroke-dasharray:none;stroke-opacity:1"
       id="path16253" /></g><g
     id="g16255"
     transform="matrix(0.35277776,0,0,-0.35277778,-5.0620427e-6,150.28334)"><g
       id="g16257"
       clip-path="url(#clipPath16261)"><text
         xml:space="preserve"
         transform="matrix(1,0,0,-1,454.44,387.86)"
         style="font-variant:normal;font-weight:bold;font-size:24px;font-family:Helvetica;-inkscape-font-specification:Helvetica-Bold;writing-mode:lr-tb;fill:#000000;fill-opacity:1;fill-rule:nonzero;stroke:none"
         id="text16265"><tspan
           x="0 14.664 21.336 42.672001 56.015999 70.031998 84.695999 98.040001 112.704 126.048 140.71201 155.37601 168.72 183.384 191.37601 198.048 211.392 219.384 232.728 240.72 254.064 260.73599 274.07999 287.42401 302.08801 315.43201 322.104 330.09601 336.76801 350.112 356.784 364.776"
           y="0"
           id="tspan16263">Time−dependent state sensitivity</tspan></text><text
         xml:space="preserve"
         transform="matrix(1,0,0,-1,553.74,11.52)"
         style="font-variant:normal;font-weight:normal;font-size:22px;font-family:Helvetica;-inkscape-font-specification:Helvetica;writing-mode:lr-tb;fill:#000000;fill-opacity:1;fill-rule:nonzero;stroke:none"
         id="text16269"><tspan
           x="0 13.574 25.806 34.012001 40.127998 52.360001 59.686001 71.917999 84.150002 90.265999 95.150002 107.382 119.614 125.73 131.84599 136.73 155.056 167.28799 173.40401"
           y="0"
           id="tspan16267">Perturbation time t</tspan></text></g></g><g
     id="g16271"
     transform="matrix(0.35277776,0,0,-0.35277778,-5.0620427e-6,150.28334)"><g
       id="g16273"
       clip-path="url(#clipPath16277)"><path
         d="m 604.85,292.5 c 0,2.97 2.43,5.4 5.4,5.4 2.97,0 5.4,-2.43 5.4,-5.4 0,-2.97 -2.43,-5.4 -5.4,-5.4 -2.97,0 -5.4,2.43 -5.4,5.4"
         style="fill:#000000;fill-opacity:1;fill-rule:nonzero;stroke:#000000;stroke-width:0.75;stroke-linecap:round;stroke-linejoin:round;stroke-miterlimit:10;stroke-dasharray:none;stroke-opacity:1"
         id="path16279" /></g></g><g
     id="g16281"
     transform="matrix(0.35277776,0,0,-0.35277778,-5.0620427e-6,150.28334)"><g
       id="g16283"
       clip-path="url(#clipPath16287)"><text
         xml:space="preserve"
         transform="matrix(0,1,1,0,446.61,131.09)"
         style="font-variant:normal;font-weight:normal;font-size:22px;font-family:Helvetica;-inkscape-font-specification:Helvetica;writing-mode:lr-tb;fill:#000000;fill-opacity:1;fill-rule:nonzero;stroke:none"
         id="text16291"><tspan
           x="0 14.674 20.790001 33.021999 39.138 51.369999 57.486 68.486 80.718002 92.949997 103.95 108.834 114.95 119.834 130.834 135.718 141.834 152.834"
           y="0"
           id="tspan16289">State sensitivity </tspan></text><text
         xml:space="preserve"
         transform="matrix(0,1,1,0,446.61,290.04)"
         style="font-variant:normal;font-weight:normal;font-size:22px;font-family:Symbol;-inkscape-font-specification:Symbol;writing-mode:lr-tb;fill:#000000;fill-opacity:1;fill-rule:nonzero;stroke:none"
         id="text16295"><tspan
           x="0"
           y="0"
           id="tspan16293">λ</tspan></text></g></g><g
     id="g16297"
     transform="matrix(0.35277776,0,0,-0.35277778,-5.0620427e-6,150.28334)"><path
       d="M 477.24,66.24 H 809.76"
       style="fill:none;stroke:#000000;stroke-width:0.75;stroke-linecap:round;stroke-linejoin:round;stroke-miterlimit:10;stroke-dasharray:none;stroke-opacity:1"
       id="path16299" /><path
       d="m 477.24,66.24 v -7.2"
       style="fill:none;stroke:#000000;stroke-width:0.75;stroke-linecap:round;stroke-linejoin:round;stroke-miterlimit:10;stroke-dasharray:none;stroke-opacity:1"
       id="path16301" /><path
       d="m 610.25,66.24 v -7.2"
       style="fill:none;stroke:#000000;stroke-width:0.75;stroke-linecap:round;stroke-linejoin:round;stroke-miterlimit:10;stroke-dasharray:none;stroke-opacity:1"
       id="path16303" /><path
       d="m 809.76,66.24 v -7.2"
       style="fill:none;stroke:#000000;stroke-width:0.75;stroke-linecap:round;stroke-linejoin:round;stroke-miterlimit:10;stroke-dasharray:none;stroke-opacity:1"
       id="path16305" /><text
       xml:space="preserve"
       transform="matrix(1,0,0,-1,471.12,43.86)"
       style="font-variant:normal;font-weight:normal;font-size:18px;font-family:Helvetica;-inkscape-font-specification:Helvetica;writing-mode:lr-tb;fill:#000000;fill-opacity:1;fill-rule:nonzero;stroke:none"
       id="text16309"><tspan
         x="0"
         y="0"
         id="tspan16307">t</tspan></text><text
       xml:space="preserve"
       transform="matrix(1,0,0,-1,476.13,40.57)"
       style="font-variant:normal;font-weight:normal;font-size:13px;font-family:Helvetica;-inkscape-font-specification:Helvetica;writing-mode:lr-tb;fill:#000000;fill-opacity:1;fill-rule:nonzero;stroke:none"
       id="text16313"><tspan
         x="0"
         y="0"
         id="tspan16311">0</tspan></text><text
       xml:space="preserve"
       transform="matrix(1,0,0,-1,605.75,40.45)"
       style="font-variant:normal;font-weight:normal;font-size:18px;font-family:Helvetica;-inkscape-font-specification:Helvetica;writing-mode:lr-tb;fill:#000000;fill-opacity:1;fill-rule:nonzero;stroke:none"
       id="text16317"><tspan
         x="0 5.0040002"
         y="0"
         id="tspan16315">t'</tspan></text><text
       xml:space="preserve"
       transform="matrix(1,0,0,-1,803.64,43.61)"
       style="font-variant:normal;font-weight:normal;font-size:18px;font-family:Helvetica;-inkscape-font-specification:Helvetica;writing-mode:lr-tb;fill:#000000;fill-opacity:1;fill-rule:nonzero;stroke:none"
       id="text16321"><tspan
         x="0"
         y="0"
         id="tspan16319">t</tspan></text><text
       xml:space="preserve"
       transform="matrix(1,0,0,-1,808.65,40.32)"
       style="font-variant:normal;font-weight:normal;font-size:13px;font-family:Helvetica;-inkscape-font-specification:Helvetica;writing-mode:lr-tb;fill:#000000;fill-opacity:1;fill-rule:nonzero;stroke:none"
       id="text16325"><tspan
         x="0"
         y="0"
         id="tspan16323">1</tspan></text><path
       d="m 477.24,66.24 v 0"
       style="fill:none;stroke:#000000;stroke-width:0.75;stroke-linecap:round;stroke-linejoin:round;stroke-miterlimit:10;stroke-dasharray:none;stroke-opacity:1"
       id="path16327" /><path
       d="m 477.24,66.24 h -7.2"
       style="fill:none;stroke:#000000;stroke-width:0.75;stroke-linecap:round;stroke-linejoin:round;stroke-miterlimit:10;stroke-dasharray:none;stroke-opacity:1"
       id="path16329" /><text
       xml:space="preserve"
       transform="matrix(1,0,0,-1,452.83,60.08)"
       style="font-variant:normal;font-weight:normal;font-size:18px;font-family:Helvetica;-inkscape-font-specification:Helvetica;writing-mode:lr-tb;fill:#000000;fill-opacity:1;fill-rule:nonzero;stroke:none"
       id="text16333"><tspan
         x="0"
         y="0"
         id="tspan16331">0</tspan></text><path
       d="M 809.76,131.65 V 292.5"
       style="fill:none;stroke:#000000;stroke-width:0.75;stroke-linecap:round;stroke-linejoin:round;stroke-miterlimit:10;stroke-dasharray:none;stroke-opacity:1"
       id="path16335" /><path
       d="m 809.76,131.65 h 7.2"
       style="fill:none;stroke:#000000;stroke-width:0.75;stroke-linecap:round;stroke-linejoin:round;stroke-miterlimit:10;stroke-dasharray:none;stroke-opacity:1"
       id="path16337" /><path
       d="m 809.76,292.5 h 7.2"
       style="fill:none;stroke:#000000;stroke-width:0.75;stroke-linecap:round;stroke-linejoin:round;stroke-miterlimit:10;stroke-dasharray:none;stroke-opacity:1"
       id="path16339" /><text
       xml:space="preserve"
       transform="matrix(1,0,0,-1,824.16,126.94)"
       style="font-variant:normal;font-weight:normal;font-size:18px;font-family:Helvetica;-inkscape-font-specification:Helvetica;writing-mode:lr-tb;fill:#000000;fill-opacity:1;fill-rule:nonzero;stroke:none"
       id="text16343"><tspan
         x="0"
         y="0"
         id="tspan16341">v</tspan></text><text
       xml:space="preserve"
       transform="matrix(1,0,0,-1,824.16,286.96)"
       style="font-variant:normal;font-weight:normal;font-size:18px;font-family:Symbol;-inkscape-font-specification:Symbol;writing-mode:lr-tb;fill:#000000;fill-opacity:1;fill-rule:nonzero;stroke:none"
       id="text16347"><tspan
         x="0"
         y="0"
         id="tspan16345">λ</tspan></text><text
       xml:space="preserve"
       transform="matrix(1,0,0,-1,834.04,286.96)"
       style="font-variant:normal;font-weight:normal;font-size:23px;font-family:Symbol;-inkscape-font-specification:Symbol;writing-mode:lr-tb;fill:#000000;fill-opacity:1;fill-rule:nonzero;stroke:none"
       id="text16351"><tspan
         x="0"
         y="0"
         id="tspan16349">(</tspan></text><text
       xml:space="preserve"
       transform="matrix(1,0,0,-1,841.7,286.96)"
       style="font-variant:normal;font-weight:normal;font-size:18px;font-family:Helvetica;-inkscape-font-specification:Helvetica;writing-mode:lr-tb;fill:#000000;fill-opacity:1;fill-rule:nonzero;stroke:none"
       id="text16355"><tspan
         x="0 5.0040002"
         y="0"
         id="tspan16353">t'</tspan></text><text
       xml:space="preserve"
       transform="matrix(1,0,0,-1,850.7,286.96)"
       style="font-variant:normal;font-weight:normal;font-size:23px;font-family:Symbol;-inkscape-font-specification:Symbol;writing-mode:lr-tb;fill:#000000;fill-opacity:1;fill-rule:nonzero;stroke:none"
       id="text16359"><tspan
         x="0"
         y="0"
         id="tspan16357">)</tspan></text></g><g
     id="g16361"
     transform="matrix(0.35277776,0,0,-0.35277778,-5.0620427e-6,150.28334)"><g
       id="g16363"
       clip-path="url(#clipPath16367)"><path
         d="M 610.25,66.24 V 292.5"
         style="fill:none;stroke:#000000;stroke-width:0.75;stroke-linecap:round;stroke-linejoin:round;stroke-miterlimit:10;stroke-dasharray:2.25, 3.75;stroke-dashoffset:0;stroke-opacity:1"
         id="path16369" /><path
         d="M 610.25,292.5 H 809.76"
         style="fill:none;stroke:#000000;stroke-width:0.75;stroke-linecap:round;stroke-linejoin:round;stroke-miterlimit:10;stroke-dasharray:2.25, 3.75;stroke-dashoffset:0;stroke-opacity:1"
         id="path16371" /></g></g></svg>
