<?xml version="1.0" encoding="UTF-8" standalone="no"?>
<!-- Created with Inkscape (http://www.inkscape.org/) -->

<svg
   width="302.68338mm"
   height="150.28334mm"
   viewBox="0 0 302.68338 150.28334"
   version="1.1"
   id="svg17418"
   xml:space="preserve"
   xmlns="http://www.w3.org/2000/svg"
   xmlns:svg="http://www.w3.org/2000/svg"><defs
     id="defs17415"><clipPath
       clipPathUnits="userSpaceOnUse"
       id="clipPath17444"><path
         d="M 0,0 H 429 V 426 H 0 Z"
         id="path17442" /></clipPath><clipPath
       clipPathUnits="userSpaceOnUse"
       id="clipPath17460"><path
         d="M 48.24,66.24 H 380.76 V 366.96 H 48.24 Z"
         id="path17458" /></clipPath><clipPath
       clipPathUnits="userSpaceOnUse"
       id="clipPath17470"><path
         d="M 0,0 H 429 V 426 H 0 Z"
         id="path17468" /></clipPath><clipPath
       clipPathUnits="userSpaceOnUse"
       id="clipPath17516"><path
         d="M 48.24,66.24 H 380.76 V 366.96 H 48.24 Z"
         id="path17514" /></clipPath><clipPath
       clipPathUnits="userSpaceOnUse"
       id="clipPath17528"><path
         d="M 477.24,66.24 H 809.76 V 366.96 H 477.24 Z"
         id="path17526" /></clipPath><clipPath
       clipPathUnits="userSpaceOnUse"
       id="clipPath17542"><path
         d="M 429,0 H 858 V 426 H 429 Z"
         id="path17540" /></clipPath><clipPath
       clipPathUnits="userSpaceOnUse"
       id="clipPath17558"><path
         d="M 477.24,66.24 H 809.76 V 366.96 H 477.24 Z"
         id="path17556" /></clipPath><clipPath
       clipPathUnits="userSpaceOnUse"
       id="clipPath17568"><path
         d="M 429,0 H 858 V 426 H 429 Z"
         id="path17566" /></clipPath><clipPath
       clipPathUnits="userSpaceOnUse"
       id="clipPath17652"><path
         d="M 477.24,66.24 H 809.76 V 366.96 H 477.24 Z"
         id="path17650" /></clipPath></defs><g
     id="g17434"
     transform="matrix(0.35277776,0,0,-0.35277778,-5.0620427e-6,150.28334)"><path
       d="M 48.24,66.24 H 380.76 V 366.96 H 48.24 Z"
       style="fill:none;stroke:#000000;stroke-width:0.75;stroke-linecap:round;stroke-linejoin:round;stroke-miterlimit:10;stroke-dasharray:none;stroke-opacity:1"
       id="path17436" /></g><g
     id="g17438"
     transform="matrix(0.35277776,0,0,-0.35277778,-5.0620427e-6,150.28334)"><g
       id="g17440"
       clip-path="url(#clipPath17444)"><text
         xml:space="preserve"
         transform="matrix(1,0,0,-1,81.92,387.86)"
         style="font-variant:normal;font-weight:bold;font-size:24px;font-family:Helvetica;-inkscape-font-specification:Helvetica-Bold;writing-mode:lr-tb;fill:#000000;fill-opacity:1;fill-rule:nonzero;stroke:none"
         id="text17448"><tspan
           x="0 15.288 28.632 37.967999 51.312 72.648003 85.991997 93.984001 107.328 116.664 123.336 138 151.34399 161.16 169.15199 183.81599 193.15199 207.81599 221.16 229.15199 235.82401 250.48801"
           y="0"
           id="tspan17446">Parameter perturbation</tspan></text><text
         xml:space="preserve"
         transform="matrix(1,0,0,-1,190.06,11.52)"
         style="font-variant:normal;font-weight:normal;font-size:22px;font-family:Helvetica;-inkscape-font-specification:Helvetica;writing-mode:lr-tb;fill:#000000;fill-opacity:1;fill-rule:nonzero;stroke:none"
         id="text17452"><tspan
           x="0 13.442 18.326 36.652"
           y="0"
           id="tspan17450">Time</tspan></text></g></g><g
     id="g17454"
     transform="matrix(0.35277776,0,0,-0.35277778,-5.0620427e-6,150.28334)"><g
       id="g17456"
       clip-path="url(#clipPath17460)"><path
         d="M 48.24,86.29 H 380.76"
         style="fill:none;stroke:#000000;stroke-width:2.25;stroke-linecap:round;stroke-linejoin:round;stroke-miterlimit:10;stroke-dasharray:none;stroke-opacity:1"
         id="path17462" /></g></g><g
     id="g17464"
     transform="matrix(0.35277776,0,0,-0.35277778,-5.0620427e-6,150.28334)"><g
       id="g17466"
       clip-path="url(#clipPath17470)"><text
         xml:space="preserve"
         transform="matrix(0,1,1,0,17.77,123.88)"
         style="font-variant:normal;font-weight:normal;font-size:22px;font-family:Helvetica;-inkscape-font-specification:Helvetica;writing-mode:lr-tb;fill:#000000;fill-opacity:1;fill-rule:nonzero;stroke:none"
         id="text17474"><tspan
           x="0 18.326 30.558001 42.790001 55.021999 59.905998 66.022003 78.253998 90.486 97.592003 109.824 128.14999 140.382 146.498 158.73 166.056"
           y="0"
           id="tspan17472">Model parameter </tspan></text><text
         xml:space="preserve"
         transform="matrix(0,1,1,0,17.77,296.05)"
         style="font-variant:normal;font-weight:normal;font-size:22px;font-family:Symbol;-inkscape-font-specification:Symbol;writing-mode:lr-tb;fill:#000000;fill-opacity:1;fill-rule:nonzero;stroke:none"
         id="text17478"><tspan
           x="0"
           y="0"
           id="tspan17476">σ</tspan></text></g></g><g
     id="g17480"
     transform="matrix(0.35277776,0,0,-0.35277778,-5.0620427e-6,150.28334)"><path
       d="M 48.24,66.24 H 380.76"
       style="fill:none;stroke:#000000;stroke-width:0.75;stroke-linecap:round;stroke-linejoin:round;stroke-miterlimit:10;stroke-dasharray:none;stroke-opacity:1"
       id="path17482" /><path
       d="m 48.24,66.24 v -7.2"
       style="fill:none;stroke:#000000;stroke-width:0.75;stroke-linecap:round;stroke-linejoin:round;stroke-miterlimit:10;stroke-dasharray:none;stroke-opacity:1"
       id="path17484" /><path
       d="m 181.25,66.24 v -7.2"
       style="fill:none;stroke:#000000;stroke-width:0.75;stroke-linecap:round;stroke-linejoin:round;stroke-miterlimit:10;stroke-dasharray:none;stroke-opacity:1"
       id="path17486" /><path
       d="m 380.76,66.24 v -7.2"
       style="fill:none;stroke:#000000;stroke-width:0.75;stroke-linecap:round;stroke-linejoin:round;stroke-miterlimit:10;stroke-dasharray:none;stroke-opacity:1"
       id="path17488" /><text
       xml:space="preserve"
       transform="matrix(1,0,0,-1,42.12,43.86)"
       style="font-variant:normal;font-weight:normal;font-size:18px;font-family:Helvetica;-inkscape-font-specification:Helvetica;writing-mode:lr-tb;fill:#000000;fill-opacity:1;fill-rule:nonzero;stroke:none"
       id="text17492"><tspan
         x="0"
         y="0"
         id="tspan17490">t</tspan></text><text
       xml:space="preserve"
       transform="matrix(1,0,0,-1,47.13,40.57)"
       style="font-variant:normal;font-weight:normal;font-size:13px;font-family:Helvetica;-inkscape-font-specification:Helvetica;writing-mode:lr-tb;fill:#000000;fill-opacity:1;fill-rule:nonzero;stroke:none"
       id="text17496"><tspan
         x="0"
         y="0"
         id="tspan17494">0</tspan></text><text
       xml:space="preserve"
       transform="matrix(1,0,0,-1,176.75,40.45)"
       style="font-variant:normal;font-weight:normal;font-size:18px;font-family:Helvetica;-inkscape-font-specification:Helvetica;writing-mode:lr-tb;fill:#000000;fill-opacity:1;fill-rule:nonzero;stroke:none"
       id="text17500"><tspan
         x="0 5.0040002"
         y="0"
         id="tspan17498">t'</tspan></text><text
       xml:space="preserve"
       transform="matrix(1,0,0,-1,374.64,43.61)"
       style="font-variant:normal;font-weight:normal;font-size:18px;font-family:Helvetica;-inkscape-font-specification:Helvetica;writing-mode:lr-tb;fill:#000000;fill-opacity:1;fill-rule:nonzero;stroke:none"
       id="text17504"><tspan
         x="0"
         y="0"
         id="tspan17502">t</tspan></text><text
       xml:space="preserve"
       transform="matrix(1,0,0,-1,379.65,40.32)"
       style="font-variant:normal;font-weight:normal;font-size:13px;font-family:Helvetica;-inkscape-font-specification:Helvetica;writing-mode:lr-tb;fill:#000000;fill-opacity:1;fill-rule:nonzero;stroke:none"
       id="text17508"><tspan
         x="0"
         y="0"
         id="tspan17506">1</tspan></text></g><g
     id="g17510"
     transform="matrix(0.35277776,0,0,-0.35277778,-5.0620427e-6,150.28334)"><g
       id="g17512"
       clip-path="url(#clipPath17516)"><path
         d="m 170.16,86.29 h 0.23 0.22 0.22 0.22 l 0.22,0.01 h 0.22 l 0.23,0.01 0.22,0.01 0.22,0.01 0.22,0.03 0.22,0.03 0.22,0.04 0.23,0.07 0.22,0.09 0.22,0.14 0.22,0.18 0.22,0.24 0.22,0.33 0.23,0.45 0.22,0.58 0.22,0.76 0.22,0.99 0.22,1.25 0.22,1.59 0.23,1.97 0.22,2.44 0.22,2.98 0.22,3.58 0.22,4.26 0.22,5.02 0.23,5.82 0.22,6.69 0.22,7.57 0.22,8.45 0.22,9.32 0.22,10.13 0.23,10.85 0.22,11.43 0.22,11.87 0.22,12.08 0.22,12.09 0.22,11.83 0.23,11.31 0.22,10.51 0.22,9.44 0.22,8.12 0.22,6.58 0.22,4.84 0.23,2.96 0.22,1 0.22,-1 0.22,-2.96 0.22,-4.84 0.22,-6.58 0.23,-8.12 0.22,-9.44 0.22,-10.51 0.22,-11.31 0.22,-11.83 0.22,-12.09 0.23,-12.08 0.22,-11.87 0.22,-11.43 0.22,-10.85 0.22,-10.13 0.22,-9.32 0.23,-8.45 0.22,-7.57 0.22,-6.69 0.22,-5.82 0.22,-5.02 0.22,-4.26 0.23,-3.58 0.22,-2.98 0.22,-2.44 0.22,-1.97 0.22,-1.59 0.23,-1.25 0.22,-0.99 0.22,-0.76 0.22,-0.58 0.22,-0.45 0.22,-0.33 0.23,-0.24 0.22,-0.18 0.22,-0.14 0.22,-0.09 0.22,-0.07 0.22,-0.04 0.23,-0.03 0.22,-0.03 0.22,-0.01 0.22,-0.01 0.22,-0.01 h 0.22 l 0.23,-0.01 h 0.22 0.22 0.22 0.22"
         style="fill:none;stroke:#000000;stroke-width:2.25;stroke-linecap:round;stroke-linejoin:round;stroke-miterlimit:10;stroke-dasharray:6.75, 11.25;stroke-dashoffset:0;stroke-opacity:1"
         id="path17518" /><path
         d="M 181.25,86.29 V 286.24"
         style="fill:none;stroke:#000000;stroke-width:0.75;stroke-linecap:round;stroke-linejoin:round;stroke-miterlimit:10;stroke-dasharray:2.25, 3.75;stroke-dashoffset:0;stroke-opacity:1"
         id="path17520" /></g></g><g
     id="g17522"
     transform="matrix(0.35277776,0,0,-0.35277778,-5.0620427e-6,150.28334)"><g
       id="g17524"
       clip-path="url(#clipPath17528)"><path
         d="m 477.24,137.18 0.33,0.08 0.34,0.08 0.33,0.08 0.33,0.08 0.33,0.09 0.34,0.08 0.33,0.09 0.33,0.09 0.33,0.09 0.34,0.09 0.33,0.1 0.33,0.09 0.33,0.1 0.34,0.09 0.33,0.1 0.33,0.1 0.33,0.1 0.34,0.11 0.33,0.1 0.33,0.11 0.33,0.11 0.34,0.11 0.33,0.11 0.33,0.11 0.33,0.11 0.34,0.12 0.33,0.12 0.33,0.12 0.33,0.12 0.34,0.12 0.33,0.12 0.33,0.13 0.33,0.13 0.34,0.13 0.33,0.13 0.33,0.14 0.33,0.13 0.34,0.14 0.33,0.14 0.33,0.14 0.33,0.15 0.34,0.14 0.33,0.15 0.33,0.15 0.33,0.15 0.34,0.16 0.33,0.15 0.33,0.16 0.33,0.16 0.34,0.17 0.33,0.16 0.33,0.17 0.33,0.17 0.34,0.18 0.33,0.17 0.33,0.18 0.33,0.18 0.34,0.19 0.33,0.18 0.33,0.19 0.33,0.19 0.34,0.2 0.33,0.19 0.33,0.2 0.33,0.2 0.34,0.21 0.33,0.21 0.33,0.21 0.33,0.21 0.34,0.22 0.33,0.22 0.33,0.22 0.33,0.23 0.34,0.23 0.33,0.23 0.33,0.24 0.33,0.24 0.34,0.24 0.33,0.24 0.33,0.25 0.33,0.26 0.34,0.25 0.33,0.26 0.33,0.27 0.33,0.26 0.34,0.27 0.33,0.28 0.33,0.27 0.33,0.29 0.34,0.28 0.33,0.29 0.33,0.29 0.33,0.3 0.34,0.3 0.33,0.31 0.33,0.31 0.33,0.31 0.34,0.32 0.33,0.32 0.33,0.33 0.33,0.33 0.34,0.33 0.33,0.34 0.33,0.35 0.33,0.34 0.34,0.36 0.33,0.36 0.33,0.36 0.33,0.37 0.34,0.37 0.33,0.37 0.33,0.39 0.33,0.38 0.34,0.39 0.33,0.4 0.33,0.4 0.33,0.41 0.34,0.41 0.33,0.42 0.33,0.42 0.33,0.43 0.34,0.43 0.33,0.44 0.33,0.45 0.33,0.45 0.34,0.45 0.33,0.46 0.33,0.47 0.34,0.47 0.33,0.48 0.33,0.49 0.33,0.49 0.34,0.5 0.33,0.5 0.33,0.51 0.33,0.51 0.34,0.52 0.33,0.53 0.33,0.53 0.33,0.54 0.34,0.55 0.33,0.55 0.33,0.56 0.33,0.57 0.34,0.57 0.33,0.58 0.33,0.59 0.33,0.59 0.34,0.6 0.33,0.6 0.33,0.62 0.33,0.62 0.34,0.62 0.33,0.64 0.33,0.64 0.33,0.65 0.34,0.65 0.33,0.66 0.33,0.67 0.33,0.68 0.34,0.68 0.33,0.7 0.33,0.69 0.33,0.71 0.34,0.71 0.33,0.72 0.33,0.73 0.33,0.74 0.34,0.74 0.33,0.75 0.33,0.76 0.33,0.77 0.34,0.77 0.33,0.78 0.33,0.79 0.33,0.8 0.34,0.8 0.33,0.81 0.33,0.82 0.33,0.83 0.34,0.83 0.33,0.85 0.33,0.85 0.33,0.85 0.34,0.87 0.33,0.87 0.33,0.88 0.33,0.89 0.34,0.9 0.33,0.9 0.33,0.91 0.33,0.92 0.34,0.93 0.33,0.93 0.33,0.94 0.33,0.95 0.34,0.96 0.33,0.96 0.33,0.97 0.33,0.98 0.34,0.98 0.33,0.99 0.33,1 0.33,1.01 0.34,1.01 0.33,1.02 0.33,1.03 0.33,1.03 0.34,1.04 0.33,1.04 0.33,1.06 0.33,1.05 0.34,1.07 0.33,1.07 0.33,1.08 0.33,1.08 0.34,1.09 0.33,1.09 0.33,1.1 0.33,1.11 0.34,1.11 0.33,1.11 0.33,1.12 0.33,1.13 0.34,1.12 0.33,1.14 0.33,1.14 0.33,1.14 0.34,1.14 0.33,1.15 0.33,1.16 0.33,1.15 0.34,1.16 0.33,1.17 0.33,1.16 0.33,1.17 0.34,1.17 0.33,1.17 0.33,1.18 0.33,1.17 0.34,1.18 0.33,1.18 0.33,1.18 0.33,1.18 0.34,1.18 0.33,1.18 0.33,1.18 0.33,1.18 0.34,1.18 0.33,1.18 0.33,1.17 0.34,1.18 0.33,1.17 0.33,1.18 0.33,1.17 0.34,1.16 0.33,1.17 0.33,1.16 0.33,1.15 0.34,1.16 0.33,1.14 0.33,1.15 0.33,1.14 0.34,1.13 0.33,1.13 0.33,1.12 0.33,1.12 0.34,1.11 0.33,1.1 0.33,1.09 0.33,1.09 0.34,1.08 0.33,1.07 0.33,1.06 0.33,1.06 0.34,1.04 0.33,1.03 0.33,1.03 0.33,1.01 0.34,1 0.33,1 0.33,0.98 0.33,0.96 0.34,0.96 0.33,0.94 0.33,0.93 0.33,0.92 0.34,0.9 0.33,0.89 0.33,0.88 0.33,0.86 0.34,0.85 0.33,0.83 0.33,0.81 0.33,0.8 0.34,0.78 0.33,0.77 0.33,0.75 0.33,0.73 0.34,0.72 0.33,0.69 0.33,0.68 0.33,0.66 0.34,0.65 0.33,0.62 0.33,0.6 0.33,0.59 0.34,0.57 0.33,0.54 0.33,0.53 0.33,0.5 0.34,0.49 0.33,0.46 0.33,0.44 0.33,0.43 0.34,0.4 0.33,0.37 0.33,0.36 0.33,0.34 0.34,0.31 0.33,0.29 0.33,0.27 0.33,0.25 0.34,0.22 0.33,0.21 0.33,0.18 0.33,0.15 0.34,0.14 0.33,0.11 0.33,0.08 0.33,0.07 0.34,0.04 0.33,0.02 h 0.33 l 0.33,-0.03 0.34,-0.05 0.33,-0.07 0.33,-0.1 0.33,-0.12 0.34,-0.14 0.33,-0.16 0.33,-0.19 0.33,-0.21 0.34,-0.23 0.33,-0.26 0.33,-0.27 0.33,-0.3 0.34,-0.32 0.33,-0.35 0.33,-0.36 0.33,-0.39 0.34,-0.4 0.33,-0.43 0.33,-0.45 0.33,-0.47 0.34,-0.5 0.33,-0.51 0.33,-0.53 0.33,-0.55 0.34,-0.58 0.33,-0.59 0.33,-0.61 0.33,-0.63 0.34,-0.65 0.33,-0.66 0.33,-0.69 0.33,-0.7 0.34,-0.72 0.33,-0.74 0.33,-0.76 0.33,-0.77 0.34,-0.79 0.33,-0.8 0.33,-0.82 0.33,-0.84 0.34,-0.85 0.33,-0.86 0.33,-0.88 0.34,-0.9 0.33,-0.91 0.33,-0.92 0.33,-0.93 0.34,-0.95 0.33,-0.96 0.33,-0.97 0.33,-0.99 0.34,-0.99 0.33,-1.01 0.33,-1.02 0.33,-1.02 0.34,-1.04 0.33,-1.05 0.33,-1.06 0.33,-1.06 0.34,-1.07 0.33,-1.09 0.33,-1.09 0.33,-1.09 0.34,-1.11 0.33,-1.11 0.33,-1.12 0.33,-1.12 0.34,-1.13 0.33,-1.14 0.33,-1.14 0.33,-1.14 0.34,-1.15 0.33,-1.16 0.33,-1.16 0.33,-1.16 0.34,-1.16 0.33,-1.17 0.33,-1.17 0.33,-1.17 0.34,-1.18 0.33,-1.17 0.33,-1.18 0.33,-1.18 0.34,-1.18 0.33,-1.18 0.33,-1.18 0.33,-1.18 0.34,-1.18 0.33,-1.18 0.33,-1.18 0.33,-1.18 0.34,-1.18 0.33,-1.17 0.33,-1.18 0.33,-1.17 0.34,-1.17 0.33,-1.16 0.33,-1.17 0.33,-1.16 0.34,-1.16 0.33,-1.15 0.33,-1.16 0.33,-1.15 0.34,-1.14 0.33,-1.14 0.33,-1.14 0.33,-1.13 0.34,-1.13 0.33,-1.12 0.33,-1.12 0.33,-1.11 0.34,-1.11 0.33,-1.1 0.33,-1.1 0.33,-1.09 0.34,-1.09 0.33,-1.08 0.33,-1.08 0.33,-1.06 0.34,-1.07 0.33,-1.05 0.33,-1.05 0.33,-1.05 0.34,-1.04 0.33,-1.03 0.33,-1.02 0.33,-1.02 0.34,-1.01 0.33,-1 0.33,-1 0.33,-0.99 0.34,-0.98 0.33,-0.97 0.33,-0.97 0.33,-0.96 0.34,-0.96 0.33,-0.94 0.33,-0.94 0.33,-0.93 0.34,-0.93 0.33,-0.91 0.33,-0.91 0.33,-0.9 0.34,-0.89 0.33,-0.89 0.33,-0.88 0.33,-0.87 0.34,-0.86 0.33,-0.86 0.33,-0.84 0.33,-0.84 0.34,-0.84 0.33,-0.82 0.33,-0.82 0.33,-0.81 0.34,-0.8 0.33,-0.79 0.33,-0.79 0.33,-0.78 0.34,-0.77 0.33,-0.76 0.33,-0.76 0.33,-0.75 0.34,-0.74 0.33,-0.73 0.33,-0.73 0.34,-0.72 0.33,-0.71 0.33,-0.7 0.33,-0.7 0.34,-0.69 0.33,-0.68 0.33,-0.67 0.33,-0.67 0.34,-0.66 0.33,-0.65 0.33,-0.65 0.33,-0.64 0.34,-0.63 0.33,-0.62 0.33,-0.62 0.33,-0.61 0.34,-0.61 0.33,-0.59 0.33,-0.59 0.33,-0.59 0.34,-0.57 0.33,-0.57 0.33,-0.57 0.33,-0.55 0.34,-0.56 0.33,-0.54 0.33,-0.54 0.33,-0.53 0.34,-0.52 0.33,-0.52 0.33,-0.52 0.33,-0.5 0.34,-0.5 0.33,-0.5 0.33,-0.49 0.33,-0.48 0.34,-0.48 0.33,-0.47 0.33,-0.46 0.33,-0.46 0.34,-0.46 0.33,-0.45 0.33,-0.44 0.33,-0.44 0.34,-0.43 0.33,-0.42 0.33,-0.43 0.33,-0.41 0.34,-0.41 0.33,-0.41 0.33,-0.4 0.33,-0.39 0.34,-0.39 0.33,-0.39 0.33,-0.38 0.33,-0.37 0.34,-0.37 0.33,-0.37 0.33,-0.36 0.33,-0.36 0.34,-0.35 0.33,-0.35 0.33,-0.34 0.33,-0.34 0.34,-0.33 0.33,-0.33 0.33,-0.32 0.33,-0.33 0.34,-0.31 0.33,-0.31 0.33,-0.31 0.33,-0.31 0.34,-0.3 0.33,-0.29 0.33,-0.3 0.33,-0.28 0.34,-0.29 0.33,-0.28 0.33,-0.28 0.33,-0.27 0.34,-0.27 0.33,-0.26 0.33,-0.27 0.33,-0.25 0.34,-0.26 0.33,-0.25 0.33,-0.25 0.33,-0.24 0.34,-0.25 0.33,-0.23 0.33,-0.24 0.33,-0.23 0.34,-0.23 0.33,-0.23 0.33,-0.22 0.33,-0.22 0.34,-0.21 0.33,-0.22 0.33,-0.21 0.33,-0.2 0.34,-0.21 0.33,-0.2 0.33,-0.2 0.33,-0.2 0.34,-0.19 0.33,-0.19 0.33,-0.19 0.33,-0.18 0.34,-0.19 0.33,-0.18 0.33,-0.17 0.33,-0.18 0.34,-0.17 0.33,-0.17 0.33,-0.17 0.33,-0.17 0.34,-0.16 0.33,-0.16 0.33,-0.16 0.33,-0.16 0.34,-0.15 0.33,-0.15 0.33,-0.15 0.34,-0.15 0.33,-0.15 0.33,-0.14 0.33,-0.14 0.34,-0.14 0.33,-0.14 0.33,-0.14 0.33,-0.13 0.34,-0.13 0.33,-0.13 0.33,-0.13 0.33,-0.13 0.34,-0.12 0.33,-0.12 0.33,-0.13 0.33,-0.12 0.34,-0.11 0.33,-0.12 0.33,-0.11 0.33,-0.12 0.34,-0.11 0.33,-0.11 0.33,-0.1 0.33,-0.11 0.34,-0.11 0.33,-0.1 0.33,-0.1 0.33,-0.1 0.34,-0.1 0.33,-0.1 0.33,-0.09 0.33,-0.1 0.34,-0.09 0.33,-0.09 0.33,-0.09 0.33,-0.09 0.34,-0.09 0.33,-0.09 0.33,-0.08 0.33,-0.09 0.34,-0.08 0.33,-0.08 0.33,-0.08 0.33,-0.08 0.34,-0.08 0.33,-0.08 0.33,-0.07 0.33,-0.08 0.34,-0.07 0.33,-0.08 0.33,-0.07 0.33,-0.07 0.34,-0.07 0.33,-0.07 0.33,-0.06 0.33,-0.07 0.34,-0.07 0.33,-0.06 0.33,-0.07 0.33,-0.06 0.34,-0.06 0.33,-0.06 0.33,-0.06 0.33,-0.06 0.34,-0.06 0.33,-0.06 0.33,-0.05 0.33,-0.06 0.34,-0.06 0.33,-0.05 0.33,-0.05 0.33,-0.06 0.34,-0.05 0.33,-0.05 0.33,-0.05 0.33,-0.05 0.34,-0.05 0.33,-0.05 0.33,-0.04 0.33,-0.05 0.34,-0.05 0.33,-0.04 0.33,-0.05 0.33,-0.04 0.34,-0.04 0.33,-0.05 0.33,-0.04 0.33,-0.04 0.34,-0.04 0.33,-0.04 0.33,-0.04 0.33,-0.04 0.34,-0.04 0.33,-0.04 0.33,-0.04 0.33,-0.03 0.34,-0.04 0.33,-0.04 0.33,-0.03 0.33,-0.04 0.34,-0.03 0.33,-0.03 0.33,-0.04 0.33,-0.03 0.34,-0.03 0.33,-0.03 0.33,-0.04 0.33,-0.03 0.34,-0.03 0.33,-0.03 0.33,-0.03 0.33,-0.03 0.34,-0.02 0.33,-0.03 0.33,-0.03 0.33,-0.03 0.34,-0.03 0.33,-0.02 0.33,-0.03 0.33,-0.02 0.34,-0.03 0.33,-0.03 0.33,-0.02 0.33,-0.02 0.34,-0.03 0.33,-0.02 0.33,-0.03 0.34,-0.02 0.33,-0.02 0.33,-0.02 0.33,-0.03 0.34,-0.02 0.33,-0.02 0.33,-0.02 0.33,-0.02 0.34,-0.02 0.33,-0.02 0.33,-0.02 0.33,-0.02 0.34,-0.02 0.33,-0.02 0.33,-0.02 0.33,-0.02 0.34,-0.01 0.33,-0.02 0.33,-0.02 0.33,-0.02 0.34,-0.01 0.33,-0.02 0.33,-0.02 0.33,-0.01 0.34,-0.02 0.33,-0.02 0.33,-0.01 0.33,-0.02 0.34,-0.01 0.33,-0.02 0.33,-0.01 0.33,-0.02 0.34,-0.01 0.33,-0.01 0.33,-0.02 0.33,-0.01 0.34,-0.01 0.33,-0.02 0.33,-0.01 0.33,-0.01 0.34,-0.02 0.33,-0.01 0.33,-0.01 0.33,-0.01 0.34,-0.02 0.33,-0.01 0.33,-0.01 0.33,-0.01 0.34,-0.01 0.33,-0.01 0.33,-0.01 0.33,-0.01 0.34,-0.02 0.33,-0.01 0.33,-0.01 0.33,-0.01 0.34,-0.01 0.33,-0.01 0.33,-0.01 0.33,-0.01 h 0.34 l 0.33,-0.01 0.33,-0.01 0.33,-0.01 0.34,-0.01 0.33,-0.01 0.33,-0.01 0.33,-0.01 0.34,-0.01 h 0.33 l 0.33,-0.01 0.33,-0.01 0.34,-0.01 0.33,-0.01 h 0.33 l 0.33,-0.01 0.34,-0.01 0.33,-0.01 h 0.33 l 0.33,-0.01 0.34,-0.01 h 0.33 l 0.33,-0.01 0.33,-0.01 h 0.34 l 0.33,-0.01 0.33,-0.01 h 0.33 l 0.34,-0.01 0.33,-0.01 h 0.33 l 0.33,-0.01 h 0.34 l 0.33,-0.01 0.33,-0.01 h 0.33 l 0.34,-0.01 h 0.33 l 0.33,-0.01 h 0.33 l 0.34,-0.01 h 0.33 l 0.33,-0.01 h 0.33 l 0.34,-0.01 h 0.33 l 0.33,-0.01 h 0.33 l 0.34,-0.01 h 0.33 l 0.33,-0.01 h 0.33 l 0.34,-0.01 h 0.33 0.33 l 0.33,-0.01 h 0.34 l 0.33,-0.01 h 0.33 0.33 l 0.34,-0.01 h 0.33 l 0.33,-0.01 h 0.33 0.34 l 0.33,-0.01 h 0.33 0.34 l 0.33,-0.01 h 0.33 l 0.33,-0.01 h 0.34 0.33 l 0.33,-0.01 h 0.33 0.34 0.33 l 0.33,-0.01 h 0.33 0.34 l 0.33,-0.01 h 0.33 0.33 l 0.34,-0.01 h 0.33 0.33 0.33 l 0.34,-0.01 h 0.33 0.33 l 0.33,-0.01 h 0.34 0.33 0.33 l 0.33,-0.01 h 0.34 0.33 0.33 l 0.33,-0.01 h 0.34 0.33 0.33 0.33 l 0.34,-0.01 h 0.33 0.33 0.33 l 0.34,-0.01 h 0.33 0.33 0.33 0.34 l 0.33,-0.01 h 0.33 0.33 0.34 0.33 l 0.33,-0.01 h 0.33 0.34 0.33 0.33 l 0.33,-0.01 h 0.34 0.33 0.33 0.33 0.34 l 0.33,-0.01 h 0.33 0.33 0.34 0.33 l 0.33,-0.01 h 0.33 0.34 0.33 0.33 0.33 l 0.34,-0.01 h 0.33 0.33 0.33 0.34 0.33 l 0.33,-0.01 h 0.33 0.34 0.33 0.33 0.33 0.34 l 0.33,-0.01 h 0.33 0.33 0.34 0.33 0.33 l 0.33,-0.01 h 0.34 0.33 0.33 0.33 0.34 0.33 l 0.33,-0.01 h 0.33 0.34 0.33 0.33 0.33 l 0.34,-0.01 h 0.33 0.33 0.33 0.34 0.33 l 0.33,-0.01 h 0.33 0.34 0.33 0.33 0.33 l 0.34,-0.01 h 0.33 0.33 0.33 0.34 0.33"
         style="fill:none;stroke:#000000;stroke-width:2.25;stroke-linecap:round;stroke-linejoin:round;stroke-miterlimit:10;stroke-dasharray:none;stroke-opacity:1"
         id="path17530" /></g></g><g
     id="g17532"
     transform="matrix(0.35277776,0,0,-0.35277778,-5.0620427e-6,150.28334)"><path
       d="M 477.24,66.24 H 809.76 V 366.96 H 477.24 Z"
       style="fill:none;stroke:#000000;stroke-width:0.75;stroke-linecap:round;stroke-linejoin:round;stroke-miterlimit:10;stroke-dasharray:none;stroke-opacity:1"
       id="path17534" /></g><g
     id="g17536"
     transform="matrix(0.35277776,0,0,-0.35277778,-5.0620427e-6,150.28334)"><g
       id="g17538"
       clip-path="url(#clipPath17542)"><text
         xml:space="preserve"
         transform="matrix(1,0,0,-1,443.1,387.86)"
         style="font-variant:normal;font-weight:bold;font-size:24px;font-family:Helvetica;-inkscape-font-specification:Helvetica-Bold;writing-mode:lr-tb;fill:#000000;fill-opacity:1;fill-rule:nonzero;stroke:none"
         id="text17546"><tspan
           x="0 14.664 21.336 42.672001 56.015999 70.031998 84.695999 98.040001 112.704 126.048 140.71201 155.37601 168.72 183.384 191.37601 198.048 212.71201 226.056 235.392 248.73599 270.07199 276.74399 283.41599 296.76001 310.104 324.76801 338.112 344.784 352.776 359.448 372.79199 379.46399 387.45599"
           y="0"
           id="tspan17544">Time−dependent param. sensitivity</tspan></text><text
         xml:space="preserve"
         transform="matrix(1,0,0,-1,553.74,11.52)"
         style="font-variant:normal;font-weight:normal;font-size:22px;font-family:Helvetica;-inkscape-font-specification:Helvetica;writing-mode:lr-tb;fill:#000000;fill-opacity:1;fill-rule:nonzero;stroke:none"
         id="text17550"><tspan
           x="0 13.574 25.806 34.012001 40.127998 52.360001 59.686001 71.917999 84.150002 90.265999 95.150002 107.382 119.614 125.73 131.84599 136.73 155.056 167.28799 173.40401"
           y="0"
           id="tspan17548">Perturbation time t</tspan></text></g></g><g
     id="g17552"
     transform="matrix(0.35277776,0,0,-0.35277778,-5.0620427e-6,150.28334)"><g
       id="g17554"
       clip-path="url(#clipPath17558)"><path
         d="m 604.85,292.5 c 0,2.97 2.43,5.4 5.4,5.4 2.97,0 5.4,-2.43 5.4,-5.4 0,-2.97 -2.43,-5.4 -5.4,-5.4 -2.97,0 -5.4,2.43 -5.4,5.4"
         style="fill:#000000;fill-opacity:1;fill-rule:nonzero;stroke:#000000;stroke-width:0.75;stroke-linecap:round;stroke-linejoin:round;stroke-miterlimit:10;stroke-dasharray:none;stroke-opacity:1"
         id="path17560" /></g></g><g
     id="g17562"
     transform="matrix(0.35277776,0,0,-0.35277778,-5.0620427e-6,150.28334)"><g
       id="g17564"
       clip-path="url(#clipPath17568)"><text
         xml:space="preserve"
         transform="matrix(0,1,1,0,446.61,101.45)"
         style="font-variant:normal;font-weight:normal;font-size:22px;font-family:Helvetica;-inkscape-font-specification:Helvetica;writing-mode:lr-tb;fill:#000000;fill-opacity:1;fill-rule:nonzero;stroke:none"
         id="text17572"><tspan
           x="0 13.794 26.025999 33.132 45.363998 63.689999 75.921997 82.038002 94.269997 101.596 107.712 118.712 130.944 143.17599 154.17599 159.06 165.17599 170.06 181.06 185.944 192.06 203.06"
           y="0"
           id="tspan17570">Parameter sensitivity </tspan></text><text
         xml:space="preserve"
         transform="matrix(0,1,1,0,446.61,310.63)"
         style="font-variant:normal;font-weight:normal;font-size:22px;font-family:Symbol;-inkscape-font-specification:Symbol;writing-mode:lr-tb;fill:#000000;fill-opacity:1;fill-rule:nonzero;stroke:none"
         id="text17576"><tspan
           x="0"
           y="0"
           id="tspan17574">κ</tspan></text><text
         xml:space="preserve"
         transform="matrix(0,1,1,0,450.64,322.7)"
         style="font-variant:normal;font-weight:normal;font-size:15px;font-family:Symbol;-inkscape-font-specification:Symbol;writing-mode:lr-tb;fill:#000000;fill-opacity:1;fill-rule:nonzero;stroke:none"
         id="text17580"><tspan
           x="0"
           y="0"
           id="tspan17578">σ</tspan></text></g></g><g
     id="g17582"
     transform="matrix(0.35277776,0,0,-0.35277778,-5.0620427e-6,150.28334)"><path
       d="M 477.24,66.24 H 809.76"
       style="fill:none;stroke:#000000;stroke-width:0.75;stroke-linecap:round;stroke-linejoin:round;stroke-miterlimit:10;stroke-dasharray:none;stroke-opacity:1"
       id="path17584" /><path
       d="m 477.24,66.24 v -7.2"
       style="fill:none;stroke:#000000;stroke-width:0.75;stroke-linecap:round;stroke-linejoin:round;stroke-miterlimit:10;stroke-dasharray:none;stroke-opacity:1"
       id="path17586" /><path
       d="m 610.25,66.24 v -7.2"
       style="fill:none;stroke:#000000;stroke-width:0.75;stroke-linecap:round;stroke-linejoin:round;stroke-miterlimit:10;stroke-dasharray:none;stroke-opacity:1"
       id="path17588" /><path
       d="m 809.76,66.24 v -7.2"
       style="fill:none;stroke:#000000;stroke-width:0.75;stroke-linecap:round;stroke-linejoin:round;stroke-miterlimit:10;stroke-dasharray:none;stroke-opacity:1"
       id="path17590" /><text
       xml:space="preserve"
       transform="matrix(1,0,0,-1,471.12,43.86)"
       style="font-variant:normal;font-weight:normal;font-size:18px;font-family:Helvetica;-inkscape-font-specification:Helvetica;writing-mode:lr-tb;fill:#000000;fill-opacity:1;fill-rule:nonzero;stroke:none"
       id="text17594"><tspan
         x="0"
         y="0"
         id="tspan17592">t</tspan></text><text
       xml:space="preserve"
       transform="matrix(1,0,0,-1,476.13,40.57)"
       style="font-variant:normal;font-weight:normal;font-size:13px;font-family:Helvetica;-inkscape-font-specification:Helvetica;writing-mode:lr-tb;fill:#000000;fill-opacity:1;fill-rule:nonzero;stroke:none"
       id="text17598"><tspan
         x="0"
         y="0"
         id="tspan17596">0</tspan></text><text
       xml:space="preserve"
       transform="matrix(1,0,0,-1,605.75,40.45)"
       style="font-variant:normal;font-weight:normal;font-size:18px;font-family:Helvetica;-inkscape-font-specification:Helvetica;writing-mode:lr-tb;fill:#000000;fill-opacity:1;fill-rule:nonzero;stroke:none"
       id="text17602"><tspan
         x="0 5.0040002"
         y="0"
         id="tspan17600">t'</tspan></text><text
       xml:space="preserve"
       transform="matrix(1,0,0,-1,803.64,43.61)"
       style="font-variant:normal;font-weight:normal;font-size:18px;font-family:Helvetica;-inkscape-font-specification:Helvetica;writing-mode:lr-tb;fill:#000000;fill-opacity:1;fill-rule:nonzero;stroke:none"
       id="text17606"><tspan
         x="0"
         y="0"
         id="tspan17604">t</tspan></text><text
       xml:space="preserve"
       transform="matrix(1,0,0,-1,808.65,40.32)"
       style="font-variant:normal;font-weight:normal;font-size:13px;font-family:Helvetica;-inkscape-font-specification:Helvetica;writing-mode:lr-tb;fill:#000000;fill-opacity:1;fill-rule:nonzero;stroke:none"
       id="text17610"><tspan
         x="0"
         y="0"
         id="tspan17608">1</tspan></text><path
       d="m 477.24,66.24 v 0"
       style="fill:none;stroke:#000000;stroke-width:0.75;stroke-linecap:round;stroke-linejoin:round;stroke-miterlimit:10;stroke-dasharray:none;stroke-opacity:1"
       id="path17612" /><path
       d="m 477.24,66.24 h -7.2"
       style="fill:none;stroke:#000000;stroke-width:0.75;stroke-linecap:round;stroke-linejoin:round;stroke-miterlimit:10;stroke-dasharray:none;stroke-opacity:1"
       id="path17614" /><text
       xml:space="preserve"
       transform="matrix(1,0,0,-1,452.83,60.08)"
       style="font-variant:normal;font-weight:normal;font-size:18px;font-family:Helvetica;-inkscape-font-specification:Helvetica;writing-mode:lr-tb;fill:#000000;fill-opacity:1;fill-rule:nonzero;stroke:none"
       id="text17618"><tspan
         x="0"
         y="0"
         id="tspan17616">0</tspan></text><path
       d="M 809.76,131.65 V 292.5"
       style="fill:none;stroke:#000000;stroke-width:0.75;stroke-linecap:round;stroke-linejoin:round;stroke-miterlimit:10;stroke-dasharray:none;stroke-opacity:1"
       id="path17620" /><path
       d="m 809.76,131.65 h 7.2"
       style="fill:none;stroke:#000000;stroke-width:0.75;stroke-linecap:round;stroke-linejoin:round;stroke-miterlimit:10;stroke-dasharray:none;stroke-opacity:1"
       id="path17622" /><path
       d="m 809.76,292.5 h 7.2"
       style="fill:none;stroke:#000000;stroke-width:0.75;stroke-linecap:round;stroke-linejoin:round;stroke-miterlimit:10;stroke-dasharray:none;stroke-opacity:1"
       id="path17624" /><text
       xml:space="preserve"
       transform="matrix(1,0,0,-1,824.16,126.94)"
       style="font-variant:normal;font-weight:normal;font-size:18px;font-family:Helvetica;-inkscape-font-specification:Helvetica;writing-mode:lr-tb;fill:#000000;fill-opacity:1;fill-rule:nonzero;stroke:none"
       id="text17628"><tspan
         x="0"
         y="0"
         id="tspan17626">v</tspan></text><text
       xml:space="preserve"
       transform="matrix(1,0,0,-1,824.16,286.96)"
       style="font-variant:normal;font-weight:normal;font-size:18px;font-family:Symbol;-inkscape-font-specification:Symbol;writing-mode:lr-tb;fill:#000000;fill-opacity:1;fill-rule:nonzero;stroke:none"
       id="text17632"><tspan
         x="0"
         y="0"
         id="tspan17630">λ</tspan></text><text
       xml:space="preserve"
       transform="matrix(1,0,0,-1,834.04,286.96)"
       style="font-variant:normal;font-weight:normal;font-size:23px;font-family:Symbol;-inkscape-font-specification:Symbol;writing-mode:lr-tb;fill:#000000;fill-opacity:1;fill-rule:nonzero;stroke:none"
       id="text17636"><tspan
         x="0"
         y="0"
         id="tspan17634">(</tspan></text><text
       xml:space="preserve"
       transform="matrix(1,0,0,-1,841.7,286.96)"
       style="font-variant:normal;font-weight:normal;font-size:18px;font-family:Helvetica;-inkscape-font-specification:Helvetica;writing-mode:lr-tb;fill:#000000;fill-opacity:1;fill-rule:nonzero;stroke:none"
       id="text17640"><tspan
         x="0 5.0040002"
         y="0"
         id="tspan17638">t'</tspan></text><text
       xml:space="preserve"
       transform="matrix(1,0,0,-1,850.7,286.96)"
       style="font-variant:normal;font-weight:normal;font-size:23px;font-family:Symbol;-inkscape-font-specification:Symbol;writing-mode:lr-tb;fill:#000000;fill-opacity:1;fill-rule:nonzero;stroke:none"
       id="text17644"><tspan
         x="0"
         y="0"
         id="tspan17642">)</tspan></text></g><g
     id="g17646"
     transform="matrix(0.35277776,0,0,-0.35277778,-5.0620427e-6,150.28334)"><g
       id="g17648"
       clip-path="url(#clipPath17652)"><path
         d="M 610.25,66.24 V 292.5"
         style="fill:none;stroke:#000000;stroke-width:0.75;stroke-linecap:round;stroke-linejoin:round;stroke-miterlimit:10;stroke-dasharray:2.25, 3.75;stroke-dashoffset:0;stroke-opacity:1"
         id="path17654" /><path
         d="M 610.25,292.5 H 809.76"
         style="fill:none;stroke:#000000;stroke-width:0.75;stroke-linecap:round;stroke-linejoin:round;stroke-miterlimit:10;stroke-dasharray:2.25, 3.75;stroke-dashoffset:0;stroke-opacity:1"
         id="path17656" /></g></g></svg>
